<?xml version="1.0" standalone="no"?>
<!DOCTYPE svg PUBLIC "-//W3C//DTD SVG 1.1//EN" "http://www.w3.org/Graphics/SVG/1.1/DTD/svg11.dtd" >
<svg xmlns="http://www.w3.org/2000/svg">
<metadata></metadata>
<defs>
<font id="dragon_is_comingregular" horiz-adv-x="303" >
<font-face units-per-em="2048" ascent="1536" descent="-512" />
<missing-glyph horiz-adv-x="206" />
<glyph horiz-adv-x="0" />
<glyph horiz-adv-x="682" />
<glyph unicode=" "  horiz-adv-x="206" />
<glyph unicode="&#x09;" horiz-adv-x="206" />
<glyph unicode="&#xa0;" horiz-adv-x="206" />
<glyph unicode="!" horiz-adv-x="407" d="M47 -16q0 18 9 43.5t14 25.5q7 0 13.5 -22t6.5 -43q0 -20 -7.5 -35.5t-16.5 -15.5q-19 0 -19 47zM55 80v5.5v4.5q0 96 69.5 266t138.5 292l69 122q8 14 14 14q9 0 15 -10.5t6 -19.5l-7 -25l-67 -129q-57 -107 -100 -199.5t-62.5 -148.5t-31.5 -96.5t-13 -57.5l-2 -16 q-3 -21 -12 -21q-4 0 -7 1t-5 3t-3 4t-1.5 5.5t-0.5 5.5z" />
<glyph unicode="&#x22;" horiz-adv-x="141" d="M125 514q0 14 10 37.5t22.5 46.5t14.5 27l-2 -2l4 12l2 -2v2q0 2 8 2q9 0 16 -6t7 -15q0 -16 -34 -60t-34 -52l2 -4h-2q-2 -2 -6 -2q-2 0 -5 5.5t-3 10.5zM227 514q0 14 10 37.5t22.5 46.5t14.5 27l-2 -2l4 12l3 -2v2q0 2 8 2q9 0 15.5 -6t6.5 -15q0 -16 -33.5 -60 t-33.5 -52l2 -4h-2q-2 -2 -6 -2q-2 0 -5.5 5.5t-3.5 10.5z" />
<glyph unicode="$" horiz-adv-x="716" d="M41 147q0 153 82 164q6 1 10 -4.5t4 -13.5q0 -20 -11 -35.5t-24.5 -24t-24.5 -27.5t-11 -46q0 -75 52 -116.5t122 -41.5l28 76q2 5 7.5 10.5t9.5 5.5q8 0 8 -12q0 -8 -2 -12l-25 -68q81 10 140 58.5t59 121.5q0 40 -18.5 85t-40 80t-40 80t-18.5 85q0 59 43 105.5 t103 50.5l12 30q2 5 7 10t9 5q8 0 8 -15q0 -8 -2 -10l-8 -20q48 0 92 -34t60 -95q4 -16 4 -27q0 -33 -21 -33q-11 0 -22.5 20t-11.5 44q0 6 1 20t1 21q0 20 -34.5 39.5t-60.5 19.5q-3 0 -9 -1t-9 -1l-35 -86q-4 -16 -18 -16q-8 0 -8 12q0 6 4 14l28 74q-84 -16 -84 -117 q0 -27 20 -68t44.5 -77.5t44.5 -87t20 -96.5q0 -59 -22 -103t-60.5 -69t-85.5 -36.5t-102 -11.5l-16 -47q-9 -18 -19 -18q-8 0 -8 14q0 2 1 6t1 6l14 39q-69 3 -128.5 49.5t-59.5 124.5z" />
<glyph unicode="&#x26;" horiz-adv-x="671" d="M29 205q6 44 32 83t69 71t77 51.5t84 44.5q0 121 57 141q20 6 39 -3.5t29 -37.5q3 -15 4.5 -26t-6 -22t-14.5 -18t-20 -15.5t-22.5 -14t-23 -13t-21.5 -12.5q0 -153 127 -340q26 26 32.5 85.5t-7.5 96.5q-7 7 -25 14.5t-24 16.5q-21 38 -8 43q2 4 7.5 3.5t14 -5.5 t14.5 -12q11 -3 28 -45t17 -105t-34 -106q21 -24 40 -35t46 -12q7 1 22.5 10.5t24.5 11.5q43 6 43 -12q4 -4 0 -9t-13 -8.5t-16 -6t-12 -3.5q-83 -13 -148 52q-37 -38 -85.5 -60.5t-97 -27.5t-94 7t-79 38.5t-50 73.5t-7.5 106zM66.5 183q0.5 -21 5.5 -44q34 -105 129 -133 q62 -9 125 11t102 65q-125 169 -133 346l-36 -18t-36 -19t-35.5 -21.5t-32.5 -23.5t-29.5 -26.5t-24.5 -29t-19 -32.5t-11.5 -35.5t-4 -39.5zM313 467q2 1 12 5.5t14 7t14 7.5t14.5 9t12 10t10.5 11.5t6 12.5t2.5 15t-3.5 16q-39 44 -61.5 -2t-20.5 -92z" />
<glyph unicode="'" horiz-adv-x="147" d="M114.5 516q-0.5 4 0.5 8q3 13 17 33.5t32.5 42t19.5 23.5l-2 -2l6 10l2 -2v2q0 3 9 0q9 -2 14 -9t4 -16q-3 -15 -45.5 -51.5t-44.5 -44.5v-4l-2 2q-2 -2 -6 -2q-1 0 -2.5 3t-2 7z" />
<glyph unicode="+" horiz-adv-x="438" d="M45 299q0 7 9.5 12.5t21.5 5.5h133l14 127q1 11 7.5 20t11.5 9q12 0 12 -33l-14 -123h118q12 0 20.5 -5.5t8.5 -12.5q0 -5 -9 -9.5t-20 -4.5h-122l-15 -125q-1 -11 -8.5 -20t-13.5 -9q-3 1 -5.5 3t-3 6t-0.5 6.5v9v8.5l15 121h-129q-12 0 -21.5 4.5t-9.5 9.5z" />
<glyph unicode="," horiz-adv-x="153" d="M39 -109q0 14 10 37.5t22.5 46.5t14.5 27l-2 -2l4 12l2 -2v2q0 2 8 2q9 0 16 -5.5t7 -14.5q0 -16 -34 -60.5t-34 -52.5l2 -4h-2q-2 -2 -6 -2q-2 0 -5 5.5t-3 10.5z" />
<glyph unicode="-" horiz-adv-x="516" d="M57 299q0 16 35 16h285q26 0 26 -16q0 -14 -26 -14h-285q-35 0 -35 14z" />
<glyph unicode="." horiz-adv-x="172" d="M39 -35q-2 13 3.5 31t14.5 18t16 -5.5t7 -14.5q0 -10 -16 -33q-21 -30 -25 4z" />
<glyph unicode="/" horiz-adv-x="481" d="M55 -57q0 73 34.5 187.5t84 226t99.5 212.5t85.5 163.5t38.5 62.5q8 16 19 16t16.5 -13t5.5 -24l-6 -31l-82 -157q-71 -131 -123.5 -245t-77 -183t-39 -119t-16.5 -70l-2 -20q-3 -25 -18 -25q-19 0 -19 19z" />
<glyph unicode="0" horiz-adv-x="657" d="M20 221q0 55 24 137t71 151t98 69q20 0 20 -17q0 -22 -16.5 -34t-46.5 -22.5t-45 -21.5q-80 -149 -80 -264q0 -109 64 -186.5t180 -77.5q70 0 135 51t109.5 128t71 166.5t26.5 168.5q0 67 -20.5 133t-58.5 113t-91.5 52.5t-118.5 -50.5q-9 -18 -15.5 -52t-15.5 -51.5 t-30 -17.5q-7 0 -12 8t-5 19q0 15 17 43.5t45.5 59t73.5 53t92 22.5q4 0 11 -1t11 -1q48 -11 84.5 -44.5t56.5 -80t29.5 -95.5t9.5 -100q0 -89 -29 -184.5t-79.5 -178t-130 -135.5t-170.5 -53q-65 0 -117.5 26t-83.5 68.5t-47.5 93.5t-16.5 105z" />
<glyph unicode="1" horiz-adv-x="528" d="M16 127q0 20 15.5 28.5t35 8.5t42 3t32.5 13q119 99 218 227.5t208 301.5q50 102 62 102q14 0 21 -12t7 -25l-6 -31l-82 -157q-71 -131 -123.5 -245t-77 -183t-39 -119t-16.5 -70l-2 -20q-3 -25 -18 -25q-17 0 -17 19q0 183 181 555q-96 -136 -218.5 -261.5 t-189.5 -125.5q-33 0 -33 16z" />
<glyph unicode="2" horiz-adv-x="671" d="M18 203q0 89 58 165.5t143 125.5q39 30 112.5 63t131 66t82.5 75q7 19 -16 42.5t-48 23.5t-32 -25q0 -12 3 -32.5t3 -28.5q0 -25 -11 -43.5t-22 -18.5q-9 0 -16 11.5t-7 29.5q0 68 26 96.5t60 28.5q37 0 62.5 -25t25.5 -57t-27 -61.5t-70.5 -55.5t-96 -53t-105.5 -59 t-96.5 -68t-70.5 -87t-27 -109q0 -42 12.5 -83.5t39 -81t76 -64.5t114.5 -25q120 0 212.5 68.5t92.5 185.5q0 53 -19 112q-12 12 -38 25.5t-41 27t-15 34.5q0 18 18 18q17 0 46 -25q73 -73 73 -200q0 -84 -51.5 -148.5t-125 -94.5t-152.5 -30t-146.5 29.5t-112.5 94 t-45 153.5z" />
<glyph unicode="3" horiz-adv-x="681" d="M18 195q0 53 18 96.5t43 66.5t46.5 35.5t32.5 12.5q18 0 18 -15q0 -23 -16 -35t-45 -24t-45 -27q-25 -49 -25 -115q0 -105 88 -171.5t201 -69.5q120 -1 193 89.5t73 205.5q0 44 -15 94.5t-52 99.5t-89 66q-36 -4 -53 -4q-20 0 -41.5 8t-21.5 27q0 10 10 19t20 9 q16 0 76 -24q56 0 86.5 32t30.5 78q0 41 -31.5 76t-85.5 35q-29 0 -49 -9t-31 -21.5t-20 -25t-22 -21.5t-31 -9q-17 0 -17 16q0 35 58 64.5t116 29.5q66 0 120 -33.5t54 -101.5q0 -48 -41 -92.5t-88 -44.5q20 -11 41 -29q66 -37 102 -103.5t36 -139.5q0 -130 -91 -223 t-229 -93q-127 0 -225.5 75t-98.5 196zM352 537q0 -2 4.5 -5t14 -5.5t20.5 -2.5h8q-23 13 -43 13h-4z" />
<glyph unicode="4" horiz-adv-x="620" d="M20 164q0 65 75.5 217.5t150.5 272.5l76 120q7 14 18 14t18 -13t7 -23q0 -7 -2.5 -15t-4.5 -12l-2 -4l-90 -154q-81 -131 -133.5 -228t-64.5 -128l-13 -31q-1 -2 -2 -5l-1.5 -4.5t-0.5 -2.5q4 -4 8 -6q46 -20 113 -29.5t105.5 -10.5t125.5 -1l9 37q1 2 2 6l1.5 6t2 5 t3 4.5t4 2t5.5 0.5q12 -2 6 -30l-8 -31q40 0 77.5 19.5t63.5 19.5q30 0 33 -17q0 -30 -35.5 -38.5t-144.5 -8.5l-33 -145q-11 -25 -20 -25q-13 3 -4 31l32 139q-13 0 -36 -1t-35 -1q-172 0 -283 47q-1 0 -5.5 1.5l-6 2t-5 2.5t-4.5 4t-1.5 5.5t-0.5 7.5z" />
<glyph unicode="5" horiz-adv-x="710" d="M20 178q0 48 16 93t38.5 73t43.5 45t34 17q16 0 16 -17q0 -23 -12.5 -36.5t-30.5 -22t-36.5 -21t-31 -43.5t-12.5 -80q0 -71 43.5 -125t107 -79t132.5 -25q132 0 213.5 89.5t81.5 215.5t-87.5 207.5t-207.5 81.5q-20 0 -29 -7.5t-9.5 -16t-7 -16t-22.5 -7.5 q-10 0 -17 9.5t-7 21.5q0 25 38 36q13 76 13 109q0 29 -2 41q-7 0 -19 -4t-20 -4q-21 0 -21 22q0 7 3 17.5t14.5 23t29.5 12.5q12 0 18.5 -7.5t12.5 -26.5q99 28 156 30q98 2 163.5 -34t65.5 -109q0 -18 -16 -18q-20 0 -32.5 16.5t-18 36.5t-18 40t-30.5 25q-45 19 -104 19 q-22 0 -45.5 -3.5t-36.5 -6.5t-41 -11t-37 -10q4 -36 4 -51q0 -37 -12 -103q68 0 131 -14q130 -31 192 -104.5t62 -196.5q0 -146 -99.5 -237t-262.5 -91q-51 0 -103 16t-97.5 45t-74.5 77.5t-29 107.5zM246 737q0 -2 4 -2q6 0 22 8q1 0 4 1t5 1q-1 1 -3.5 8.5t-3.5 8.5 q-9 9 -18.5 -4t-9.5 -21zM260 535q0 -5 2 -5l2 2q0 5 2 9z" />
<glyph unicode="6" horiz-adv-x="649" d="M20 211q0 63 25 147q43 139 170 276t240 154q53 7 81 -30.5t25 -104.5q-4 -57 -24 -57q-12 0 -20.5 16.5t-8.5 40.5q0 11 8.5 35.5t7.5 40.5q-1 22 -24.5 34t-40.5 5q-70 -26 -148.5 -98.5t-122.5 -141.5q51 32 112.5 35t118 -21t104.5 -64.5t76.5 -99t27.5 -120.5 q-2 -126 -96.5 -229.5t-221.5 -104.5q-134 -1 -211.5 78.5t-77.5 208.5zM80 207q0 -41 9.5 -79.5t30 -75.5t59 -63.5t91.5 -35.5q24 -4 39 -4q83 0 157 54.5t107 135.5q29 57 29 121q0 59 -28 114t-75 92t-102.5 57t-117 13.5t-111.5 -42.5q-15 -23 -32 -58.5t-36.5 -103 t-19.5 -125.5z" />
<glyph unicode="7" horiz-adv-x="534" d="M39 -35q-2 13 3.5 31t14.5 18t16 -5.5t7 -14.5q0 -10 -16 -33q-21 -30 -25 4zM61 635q0 52 33 89t78 52t96 15q50 0 103 -6t121.5 -17.5t103.5 -15.5q24 43 29.5 51t9.5 8q12 0 19.5 -13t7.5 -24q0 -7 -2 -15t-4 -12l-1 -4q31 -8 68 -8q31 0 31 25q0 5 -6.5 13.5 t-2.5 12.5q3 0 7 -1t11.5 -9t8.5 -22q0 -41 -57 -41q-3 0 -72 6l-70 -133q-70 -126 -122 -243t-75.5 -189t-38.5 -127.5t-23 -79t-17 -23.5q-18 0 -18 19q0 74 32.5 184.5t85 227t97 205.5t88.5 167q-25 4 -76 12.5l-81 13.5t-73.5 9t-79.5 4q-79 0 -132.5 -33.5 t-53.5 -99.5q0 -38 21 -57t45.5 -20.5t45.5 -11.5t21 -32q0 -16 -26 -16q-63 1 -97.5 47t-34.5 92z" />
<glyph unicode="8" horiz-adv-x="618" d="M18 182q0 49 22 99t45 83t77 80.5t76.5 65t85.5 62.5q20 15 30 22q-10 30 -10 59q0 53 26 93t76 40q26 0 45 -17t19 -44q0 -77 -119 -156q13 -28 53.5 -96.5t62 -126t25.5 -125.5q4 -82 -43 -131t-106 -49q-27 0 -27 16q0 22 16 30.5t38.5 11t45 9.5t38.5 32.5t16 72.5 q0 62 -19.5 115t-61.5 124.5t-56 100.5q-53 -40 -82 -62.5t-74.5 -65t-70 -76t-43.5 -78.5t-19 -89q0 -33 12 -71t35.5 -75t64 -61t91.5 -24q116 0 202 78.5t86 199.5q0 49 -14 107q-3 30 -35 63.5t-32 63.5q0 24 14 24q11 0 24.5 -11.5t20.5 -29.5q5 -20 18 -62.5t20 -81 t7 -87.5q0 -84 -45.5 -151.5t-116 -102.5t-149.5 -35q-113 0 -191 74.5t-78 181.5zM369 649q0 -23 6 -41q26 20 36 28t30.5 26.5t29 33.5t8.5 29q0 41 -37 41q-31 0 -52 -36.5t-21 -80.5z" />
<glyph unicode="9" horiz-adv-x="673" d="M43 453q0 135 104 234t242 99q106 0 182 -76.5t80 -197.5q2 -57 -26 -156q-27 -94 -93 -195t-154 -171.5t-163 -65.5q-15 1 -32.5 6t-39 17.5t-35.5 38t-14 61.5q0 25 15 25q23 0 34 -20t13 -43.5t14 -43.5t35 -20q126 0 278 243q-75 -36 -153 -28t-141.5 42.5 t-104.5 101.5t-41 149zM68 451q0 -60 27 -113.5t73 -89t101 -55t116.5 -14t114.5 37.5q9 13 26 46.5t40.5 107.5t23.5 137q0 27 -6.5 58t-23 66.5t-40.5 64t-64 47t-89 18.5q-116 0 -207.5 -96t-91.5 -215z" />
<glyph unicode=":" horiz-adv-x="258" d="M70 98q-2 13 3 31t15 18q9 0 16 -5.5t7 -14.5q0 -10 -16 -33q-21 -30 -25 4zM127 258q-2 13 3.5 31t14.5 18t16 -5.5t7 -14.5q0 -10 -16 -33q-21 -30 -25 4z" />
<glyph unicode=";" horiz-adv-x="217" d="M27 29q0 14 10 37t22.5 46t14.5 27l-2 -2l4 13l2 -3v3q0 2 8 2q9 0 16 -6t7 -15q0 -16 -34 -60.5t-34 -52.5l2 -4h-2q-2 -2 -6 -2q-2 0 -5 6t-3 11zM125 256q-2 13 3.5 31t14.5 18t16 -5.5t7 -14.5q0 -10 -16 -33q-21 -30 -25 4z" />
<glyph unicode="=" horiz-adv-x="593" d="M57 213q0 16 35 16h285q26 0 26 -16q0 -14 -26 -14h-285q-35 0 -35 14zM94 295q0 16 35 16h285q26 0 26 -16q0 -14 -26 -14h-285q-35 0 -35 14z" />
<glyph unicode="?" horiz-adv-x="708" d="M88 352q0 168 119.5 292t275.5 124q47 0 113.5 -23.5t73.5 -25.5q3 0 6.5 1t8 2.5l7.5 2.5q8 10 17 10q12 -2 12 -35l-8 -22l-88 -115q-72 -94 -128.5 -176t-86 -133t-48.5 -90t-24.5 -55t-5.5 -21q0 -7 -4.5 -12t-8.5 -6.5t-6 -1.5q-14 3 -14 14q0 1 1 4t1 4 q11 64 58.5 157t113.5 187t113 156t88 112q-36 0 -90.5 20.5t-96.5 20.5q-147 0 -260.5 -117t-113.5 -274q0 -80 43 -80t122 60.5t82 87.5q3 38 18.5 63t35.5 25q16 0 16 -25q0 -23 -35 -73q-29 -38 -108.5 -99t-130.5 -61q-68 0 -68 102zM276 -20q0 17 13 47t20 30 q13 -3 13 -59q0 -22 -8.5 -39.5t-18.5 -17.5q-19 0 -19 39z" />
<glyph unicode="A" horiz-adv-x="1048" d="M-162 174q-2 11 -2 20.5t2 18.5q4 17 15 20q11 2 21.5 -12t14.5 -37q6 -31 1 -46.5t2.5 -33.5t37.5 -45q79 -69 190 -81q29 -3 57 -3q81 1 159 27q105 36 188 104q294 240 502 433q23 20 55.5 51t51 48t20.5 17q7 13 13 15q3 1 5 1q3 0 4 -2l3 -3q12 -8 14 -24v-7 q0 -11 -4 -20l-4 -11l-129 -190q-77 -126 -123.5 -215.5t-53.5 -116.5l-8 -27q-3 -16 2.5 -22.5t11.5 -4.5l7 1q12 4 51.5 30.5t73.5 50.5l33 25q18 8 14 -6l-10 -20q-4 -5 -39.5 -31t-69.5 -49l-33 -23q-33 -11 -49.5 -3t-21.5 23l-4 15q-2 9 -2 21q0 69 69 206h-94 q-14 0 -10 6q3 7 19.5 12t23.5 3q16 -1 29 -1q45 0 49 11h2q64 121 163 262q-29 -29 -43 -41q-206 -194 -503 -434q-87 -70 -195 -108q-79 -28 -164 -28q-30 0 -62 4q-118 14 -204 89q-22 18 -45.5 57.5t-30.5 73.5z" />
<glyph unicode="B" horiz-adv-x="1030" d="M-119 539q8 5 22.5 -3.5t26.5 -25.5q3 -5 5.5 -30.5t19.5 -33.5q27 -8 45 -10q15 -2 33 -2q64 0 162 25q71 19 140 44t176.5 70.5t137.5 57.5q37 15 77 27t92 24q46 10 86 11q5 -1 10 -1q44 -2 80 -13.5t53 -47.5q11 -24 12 -56q0 -17 -4 -36q-16 -65 -84 -119 q39 -22 54 -64q11 -31 11 -62q0 -11 -2 -23q-6 -42 -22 -83q65 -12 65 -20q-1 -2 -20 -2t-56 2q-55 -110 -157 -186q-80 -61 -162 -64q-12 -2 -23 -2q-35 0 -67 16q-44 22 -57 66q-6 16 -6 31q-1 29 21 55q32 38 79 57q122 57 288 56h37q26 54 26 105v10q-2 56 -40 85 q-2 0 -2 2q-29 -18 -66 -24q-2 0 -23 -4.5t-32 0t-12 22.5q1 8 3.5 14.5t7 11t8 7.5t10 5t10 3t10.5 2.5t8 1.5q10 1 19 1q34 0 61 -9q71 48 88 115q4 16 4 30q0 30 -16 51q-23 31 -64 39q-29 6 -58 6q-13 1 -27 -1q-44 -4 -78 -17q4 -11 3 -21.5t-4 -19.5l-4 -8l-129 -190 q-56 -79 -96 -147t-58 -108.5t-27.5 -69.5t-9.5 -41l-1 -11q-2 -16 -10 -19.5t-15 0.5l-8 5q-2 9 -2 21q0 40 28 110q36 90 101 197.5t106 170.5t80 119q-37 -13 -86 -33q-30 -12 -137.5 -57.5t-178 -71.5t-142.5 -45q-82 -21 -145 -21q-31 0 -58 5q-25 5 -39 9.5t-33.5 18 t-34.5 35.5q-18 27 -18 43q0 10 8 15zM559 6q10 -35 48 -52q28 -13 57 -13q10 0 20 2q77 11 143 76t115 153h-23q-164 0 -280 -53q-84 -43 -84 -92q0 -10 4 -21zM830 397q0 -2 4 -3q3 -1 7 -1q10 0 25 4q8 2 22.5 8t18.5 7q-14 2 -41 2q-36 -8 -36 -17z" />
<glyph unicode="C" horiz-adv-x="907" d="M-90 459q0 15 6 33q21 49 62 82t95.5 48t102.5 20t107 5q73 0 143.5 -12.5t151.5 -34t120 -29.5q144 93 281 93q65 0 109.5 -29.5t44.5 -69.5q0 -31 -35.5 -51t-108.5 -20q-88 0 -264 47q-116 -86 -198.5 -209.5t-82.5 -235.5q0 -60 32.5 -97.5t96.5 -37.5q50 0 113 22 t109.5 48.5t86.5 48.5t50 22q0 -20 -58.5 -59.5t-145.5 -72.5t-153 -33q-19 0 -36 2t-46.5 12.5t-50 28.5t-36 55.5t-15.5 89.5q0 63 27 130t70.5 123t90.5 100t93 75q-39 7 -114 27t-140.5 31.5t-134.5 11.5t-118 -4.5t-106.5 -26.5t-89.5 -62q-7 -9 -10 -35t-9 -45.5 t-20 -19.5q-6 0 -8 2q-12 6 -12 27zM752 559q160 -39 245 -39q109 0 109 43q0 34 -41.5 55t-99.5 21q-108 -11 -213 -80z" />
<glyph unicode="D" horiz-adv-x="862" d="M-248 137q0 12 12 15q25 6 40.5 -17.5t21.5 -52t8 -29.5q59 -49 172.5 -75.5t224.5 -26.5q83 0 169.5 18t169.5 56.5t148 91.5t104.5 129.5t39.5 165.5q0 104 -57 173.5t-160 78.5q-59 0 -96.5 -9.5t-75.5 -42.5q-6 -5 -10.5 -12t-8 -17t-6 -18t-5.5 -22t-4 -22t-3.5 -24 t-3.5 -22l105 158q7 14 18 14q9 0 16 -12.5t7 -22.5q0 -7 -2 -14.5t-4 -11.5l-3 -4l-129 -191q-52 -75 -91 -140t-57.5 -104t-29 -71.5t-12.5 -43.5t-2 -18q0 -20 -17 -20q-18 0 -18 16q0 62 57 181t138 245q0 153 53 197q65 56 168 56q12 0 24 -1q114 -6 191.5 -79.5 t77.5 -196.5q0 -117 -66 -214t-169 -156t-219 -90.5t-226 -31.5q-127 0 -246 35q-42 7 -95.5 30t-101 65t-47.5 87z" />
<glyph unicode="E" horiz-adv-x="841" d="M-117 389q0 15 6 33q61 123 169 190.5t237 67.5q165 0 412 -111q116 80 239 80q39 0 74 -20t35 -62q0 -49 -47 -73.5t-93 -24.5q-31 0 -64 10.5t-70 27.5t-54 23q-48 -48 -48 -91q0 -17 7 -33q18 2 57 2q50 0 50 -29q0 -14 -11 -22t-19 -9.5t-15 -1.5q-21 0 -44 11.5 t-30 21.5q-111 -19 -211.5 -107t-100.5 -176q0 -62 35.5 -92.5t77.5 -30.5q52 0 138.5 36.5t159.5 73t91 36.5q2 -9 -62 -50.5t-161 -81.5t-166 -40q-71 0 -118.5 40.5t-47.5 118.5q0 62 33.5 116t86 90t109.5 58.5t111 30.5q-20 28 -18 57t16 52t37 41q-236 104 -391 104 q-203 0 -336 -159q-13 -15 -18.5 -40t-5 -45t-6.5 -34.5t-27 -14.5q-2 1 -4 3q-13 3 -13 24zM498 -27q8 0 24 4q-16 -4 -24 -4zM711 383q5 -7 31 -11q8 -1 14 -2q12 0 14 5q3 6 -12 9q-31 5 -47 -1zM748 549q1 0 3 -1t3 -1q17 -6 49.5 -21.5t57 -23.5t48.5 -8q44 0 82.5 19 t38.5 54q0 56 -127 56q-86 -12 -155 -74z" />
<glyph unicode="F" horiz-adv-x="526" d="M-82 375q0 66 26.5 119.5t67.5 86t94 54.5t103.5 30.5t99.5 8.5q66 0 143.5 -12.5t118 -23t131.5 -36.5q49 72 52 72q14 0 21 -10.5t7 -22.5q0 -7 -2 -15.5t-4 -13.5l-2 -4l-12 -22q22 -4 33 -8q128 86 254 86h21.5t24 -1.5t27.5 -6t22 -11t17.5 -19t5.5 -28.5 q0 -80 -123 -80q-98 0 -245 33q-64 -43 -131 -117l-2 -2h26q29 0 29 -12t-29 -12h-43q-42 -50 -120.5 -178t-142.5 -209.5t-112 -81.5q-46 0 -81 17t-35 58q0 8 6 19t18.5 23.5t37.5 21t59 8.5q19 0 32 -7.5t13 -17.5q0 -20 -43 -20q-17 0 -45 14q-52 -18 -52 -41 q0 -21 27 -35t55 -14q25 0 68.5 62.5t111 178.5t99.5 165q-11 13 -33 24t-38.5 17t-16.5 8q0 4 1 6t8.5 4t22.5 2h97q93 136 102 148q-85 24 -128.5 35t-115.5 22.5t-135 11.5q-83 0 -160 -24t-136 -78.5t-70 -130.5q2 -12 12 -33t10 -37q0 -30 -14 -33q-13 0 -23 17.5 t-10 44.5zM541 408q3 -2 18 -17q2 3 5 8.5t5 8.5h-28zM723 522q7 6 21.5 18.5t21.5 18.5q-12 4 -18 4zM827 569q134 -26 217 -26q21 0 41.5 4t40 17t19.5 34q0 41 -98 41q-109 0 -220 -70z" />
<glyph unicode="G" horiz-adv-x="606" d="M8 115q0 183 199 370q84 81 188.5 132t210.5 51q15 0 29 -1.5t44 -8.5t48 -27t18 -51l-3 -12q-2 -12 -7 -29t-12 -34.5t-19.5 -29.5t-27.5 -12q-14 0 -14 16q0 25 30.5 51t30.5 48q0 57 -133 57q-125 -12 -251 -104.5t-204 -217t-78 -229.5q0 -54 32 -86.5t87 -32.5 q43 0 124 25t154.5 71.5t73.5 94.5q0 56 35 67q15 5 26 -10.5t5 -34.5q-78 -160 -162 -260q48 -10 128 -34t146 -39t125 -15q139 0 234 68q12 6 28 50t40 44q14 0 14 -19q0 -40 -53 -78.5t-127 -61.5t-140 -23q-64 0 -133 14.5t-152.5 39t-127.5 34.5q-133 -142 -240 -142 q-32 0 -60 19t-28 51q0 33 22.5 56t59 33.5t68 14.5t63.5 4q46 0 104 -10q41 46 93 133q-1 -1 -16 -10.5t-31 -19t-41 -23.5t-51.5 -25.5t-55.5 -22t-60.5 -16.5t-60.5 -6q-77 0 -124.5 50t-47.5 131zM113 -172q0 -19 17.5 -33t41.5 -14q90 0 211 121q-41 6 -80 6 q-24 0 -51.5 -3t-61 -10.5t-55.5 -25t-22 -41.5zM555 150q18 30 18 40q0 3 -1 6q-2 4 -4 4l-1 1q-2 0 -4 -2q-9 -9 -9 -31q0 -8 1 -18z" />
<glyph unicode="H" horiz-adv-x="1064" d="M-199 483q0 27 17 27q15 0 21 -13t5 -30t3.5 -39t17.5 -35q49 -46 111.5 -62t142.5 -16q163 0 477 86q171 269 190 269q10 0 17.5 -12.5t7.5 -22.5q0 -7 -2 -15t-4 -12l-2 -4l-125 -182q42 14 88 18q14 1 27 2q31 0 62 -7q44 -9 71 -44q24 -32 24 -81v-11 q42 77 100.5 166t95.5 139l38 51q8 15 16 15q9 0 16 -12.5t7 -22.5q0 -7 -2.5 -15t-4.5 -12l-2 -4l-129 -190q-186 -300 -186 -369q0 -18 14 -18h3q25 0 89 47q68 50 74 61q4 2 11 2q4 0 4 -4q0 -12 -61 -64.5t-91 -62.5q-18 -6 -31 -6q-17 0 -28.5 10t-14.5 20l-2 11 q-2 6 -2 22q0 27 32 114.5t32 131.5q0 47 -29.5 73.5t-73.5 30.5q-18 2 -35 2l-53 -4q-44 -6 -80 -20q-48 -71 -84 -133t-52.5 -99t-26.5 -67t-11.5 -39.5t-1.5 -15.5q0 -11 -6 -16t-12 -5q-23 0 -23 17q0 119 138 338q-292 -80 -455 -80q-228 0 -299 133q-23 31 -23 59z " />
<glyph unicode="I" horiz-adv-x="610" d="M-104 -6q0 14 18 14q20 0 34.5 -10.5t30.5 -29t29 -27.5q42 0 62 6q78 26 148.5 70t135 105t117 118t126.5 138t132 138q57 57 85 93q7 9 11 9q8 0 13.5 -11.5t5.5 -20.5q0 -8 -2 -17t-4 -13l-2 -5l-115 -145q-88 -120 -141.5 -219.5t-63.5 -138.5l-10 -40 q-5 -20 -17 -20q-18 0 -18 14q0 60 54.5 174t125.5 221q-23 -25 -71 -78.5t-75.5 -82.5t-72.5 -75.5t-81.5 -75.5t-82.5 -63t-94 -58.5t-100 -41.5q-18 -6 -39 -6q-57 0 -105 33q-34 18 -34 45zM840 631q0 19 20.5 44t38.5 25q16 0 16 -16q0 -23 -20 -47.5t-39 -24.5 q-6 0 -8 2q-8 4 -8 17z" />
<glyph unicode="J" horiz-adv-x="518" d="M-72 -147q0 81 64 126.5t139 45.5q86 0 178 -29q32 49 135 214.5t146 229.5q-210 -104 -387 -104q-71 0 -119.5 33.5t-48.5 99.5q0 25 16 25t25 -14t14 -34t14 -40t32.5 -34t62.5 -14q65 0 129.5 13t140.5 45t116.5 51t129.5 65q20 10 86.5 46.5t99.5 52.5t90 32.5 t107 16.5q25 0 50.5 -7t49 -30t23.5 -59q0 -48 -42 -90.5t-92 -42.5q-26 0 -26 14q0 22 21 32.5t46.5 13.5t46.5 21t21 54t-28 53.5t-70 17.5q-29 0 -59 -5t-63.5 -17t-58 -21.5t-63.5 -30.5t-56 -30t-60.5 -34.5t-53.5 -31.5q0 -16 -6 -22q-42 -59 -119.5 -180.5t-135 -215 t-58.5 -94.5q8 -3 30.5 -11t32.5 -11t30 -9.5t33 -10t30 -7t32.5 -5t30.5 -1.5q38 0 61 16.5t40.5 33t43.5 16.5q23 0 23 -15q0 -27 -55 -51t-124 -24q-70 0 -223 59q-143 -197 -297 -197q-50 0 -87.5 23t-37.5 72zM-47 -149q0 -33 26 -50q27 -18 74 -18q66 0 123 49 t119 141q-83 27 -164 27q-24 0 -51 -7t-56 -22t-49 -46q-22 -34 -22 -74z" />
<glyph unicode="K" horiz-adv-x="727" d="M-156 287q0 14 13 14q12 0 21.5 -4.5t19.5 -18t15 -21.5t17 -30q15 -12 82 -12q173 0 342 97.5t305 248.5q11 12 34.5 39t34.5 39t15 12q9 0 15 -12t6 -21q0 -8 -2 -16t-4 -12l-2 -4l-111 -187q-51 -85 -102 -178q33 0 84 15q74 22 166 105t92 128q0 7 -1 20t-1 19 q0 23 13.5 42t23.5 19q5 0 9 -1.5t6 -5.5t3.5 -7.5t1.5 -9t-0.5 -10t-1.5 -11t-2 -9.5t-2.5 -8.5t-1.5 -6.5q-11 -42 -49.5 -94t-91 -99t-120 -78.5t-128.5 -31.5h-8q-7 0 -7 -4q30 -59 59 -103t69 -85.5t91 -64t111 -22.5q32 0 55 11.5t33.5 25.5t26.5 25.5t35 11.5 q20 0 20 -15q0 -30 -60.5 -55.5t-115.5 -25.5q-61 0 -115 23t-95 64.5t-70.5 84t-57.5 96.5q-23 -45 -37 -80.5t-17 -47.5l-3 -13q-3 -23 -17 -23l-16 6q-2 6 -2 23q0 63 51 178q-18 6 -33 23.5t-18 37.5q-7 40 24 43q11 1 22.5 -10.5t16 -20.5t11.5 -24q60 120 141 246 q-95 -96 -185.5 -161.5t-208 -108t-243.5 -42.5q-99 0 -138 47q-17 21 -18 50zM442 272q10 -36 39 -43q-11 37 -26 56q-3 3 -5 3h-1q-3 0 -3 -2q-2 -2 -3 -4t-1 -5v-5z" />
<glyph unicode="L" horiz-adv-x="593" d="M-117 326q0 76 32.5 137t85.5 98t114.5 56.5t124.5 19.5q89 0 253 -43.5t244 -44.5q77 96 99 102q5 2 10 1q13 0 23 -11q14 -16 14 -35q0 -70 -98 -83q-3 -1 -5 -1q-280 -452 -309 -483q44 -56 87.5 -86.5t105.5 -30.5q36 0 60.5 9t36 21.5t20.5 25t22 21.5t33 9 q14 0 14 -14q0 -10 -10.5 -24.5t-26.5 -22.5q1 -3 -21.5 -14t-62.5 -22t-76 -11q-63 0 -110 33.5t-92 89.5q-39 -29 -84 -29q-49 0 -76 43t-27 98q0 57 41 64q16 4 33.5 -5.5t40 -35.5t30 -36t29.5 -40q47 66 136.5 216.5t144.5 225.5q-81 4 -238.5 45t-242.5 41 q-126 0 -218.5 -69t-103.5 -154q0 -12 5 -31.5t5 -27.5q0 -52 -20 -52q-23 6 -23 50zM289 135q0 -44 23.5 -78t54.5 -34q29 0 57 36q-6 8 -23 30t-27 34.5t-23.5 27.5t-23 21t-16.5 4q-22 -8 -22 -41zM799 549q59 12 59 53q0 18 -8 21h-1t-3 -2q-4 -3 -8.5 -8.5t-8.5 -12.5 q-6 -8 -30 -51z" />
<glyph unicode="M" horiz-adv-x="837" d="M-303 -25q0 17 18 17q20 0 34.5 -10.5t30.5 -29t30 -28.5q39 0 59 6q92 30 176 83t169 138t133.5 140.5t137.5 164.5q21 25 31 38q22 29 39 52.5t25 35.5t12.5 20t5.5 10l2 2q20 0 24 -27t-3 -40l-86 -148q-161 -261 -187 -358q2 0 37 47q38 48 111.5 147t119 158 t120 134t149.5 128q16 8 27 8q24 0 28 -36q19 28 27 28q17 1 19 -27q1 -7 1 -13q0 -18 -6 -25l-129 -191q-186 -302 -186 -368q0 -21 14 -21q6 0 85.5 50.5t80.5 58.5q4 2 10 2q4 0 4 -4q0 -12 -60 -61.5t-91 -63.5q-16 -8 -33 -8q-16 0 -27 10t-13 20l-3 11q-2 6 -2 20 q0 151 289 555q0 33 -9 35q-6 2 -16 -4q-70 -48 -141.5 -121t-118 -133t-118.5 -157t-111 -146q-59 -74 -78 -74q-17 0 -17 20q0 116 127 336q-70 -84 -122.5 -140t-125 -122t-151.5 -112.5t-166 -75.5q-20 -4 -33 -4q-7 -1 -14 -1q-43 1 -83 23q-46 26 -46 51z" />
<glyph unicode="N" horiz-adv-x="890" d="M-156 457q0 22 15 22q24 0 43 -37q4 -8 5.5 -33t16.5 -44q107 -64 217 -64q119 0 240.5 58.5t202.5 150.5q12 14 22.5 26.5t17.5 21.5t12.5 17t8.5 13t5.5 9.5t3.5 7t2 4t1.5 2.5t1.5 1h3q18 0 21.5 -26.5t-3.5 -38.5l-86 -148q-120 -192 -182 -352q6 9 30 41 q40 50 112.5 147.5t119 157t120.5 135t150 127.5q8 7 19 7q7 0 17 -4q22 -10 19 -29q6 6 11 12t6.5 8.5t3.5 4t6 1.5q15 1 17 -27q1 -8 1 -15q0 -16 -4 -23l-129 -191q-186 -300 -186 -366q0 -23 14 -23h1q18 0 88 48q72 48 77 61q4 2 10 2q5 0 5 -4q0 -11 -61 -61.5 t-91 -63.5q-16 -8 -33 -8q-16 0 -27 10t-14 20l-2 11q-1 9 -1 20q0 46 22 109q27 77 79 164t90.5 144t85.5 123q8 10 11 15q2 22 -4 32t-23 -1q-69 -49 -141 -122.5t-117 -131t-120.5 -158t-110.5 -145.5q-59 -74 -76 -74q-18 0 -18 20q0 69 50.5 183.5t123.5 232.5 q-84 -74 -188.5 -117t-209.5 -43q-108 0 -204.5 54t-96.5 127z" />
<glyph unicode="O" horiz-adv-x="784" d="M-195 547q0 19 29 45t92 49t123 23q177 0 322 -123v2q50 49 113.5 81.5t123.5 32.5q66 0 98.5 -42t38.5 -128q1 -9 1 -20q0 -27 -4 -59q-5 -46 -23 -103t-46.5 -105t-80 -81t-117.5 -33q-69 0 -107 52.5t-38 123.5q0 113 84 207q-12 10 -35 33q-121 -143 -121 -287 q0 -59 15 -108t54 -84t97 -35q75 0 141.5 32.5t112.5 85.5t80.5 120t52 136t20.5 134q-2 41 -24.5 67t-22.5 49q0 31 19 31q44 0 44 -127q0 -16 -1 -33q-4 -69 -24 -140.5t-57.5 -139.5t-87.5 -121.5t-118.5 -86t-144.5 -32.5q-104 0 -157.5 62.5t-53.5 154.5q0 173 151 342 q-145 119 -303 119q-73 0 -139 -27q-19 -10 -31.5 -25.5t-18 -27.5t-15.5 -21.5t-25 -9.5q-17 0 -17 17zM387 266q0 -37 8.5 -68.5t35 -56.5t67.5 -26q71 4 123.5 61t76 137.5t23.5 171.5q0 148 -111 148h4q-49 -4 -49 -8q-79 -17 -170 -105q6 -6 18 -17t17 -16 q23 20 34 28.5t32 18t43 9.5q36 0 57.5 -24t21.5 -56q0 -35 -24 -59.5t-59 -24.5q-12 0 -23.5 3.5t-23 12t-17 13.5t-18 18t-13.5 14q-53 -84 -53 -174zM455 461q54 -58 88 -58q16 0 33.5 16.5t17.5 43.5q0 22 -16 38.5t-39 16.5q-42 0 -84 -57z" />
<glyph unicode="P" horiz-adv-x="1003" d="M-150 264q0 17 15 17q17 0 29.5 -12t19 -27t22 -27t39.5 -12q28 0 50 14q80 37 182 98t180.5 112t181.5 105t195 84q119 39 197 39q149 0 149 -147q0 -121 -71 -234t-184.5 -182t-233.5 -69q-45 0 -77 22t-32 70q0 8 4 32q-26 -53 -42.5 -93t-19.5 -54l-3 -14 q-5 -23 -19 -23q-18 0 -18 17q0 74 67.5 218t135 251.5t75.5 107.5q4 4 4 6q-125 -51 -343 -186.5t-318 -183.5q-37 -15 -72 -15q-30 0 -71.5 23.5t-41.5 62.5zM532 109q0 -25 25 -40.5t51 -17.5q109 0 212 74.5t162.5 180t59.5 200.5q0 115 -114 115q-18 0 -37 -2t-33 -4.5 t-35.5 -8.5t-32 -9.5l-37.5 -12.5t-38 -13q18 -18 18 -34q0 -7 -2 -15t-4 -12l-2 -4l-86 -144q-49 -78 -88 -151q4 4 10 4q14 0 14 -25q0 -17 -6 -29.5t-19 -28t-18 -23.5z" />
<glyph unicode="Q" horiz-adv-x="643" d="M12 84q0 64 49 84q0 86 37.5 172t97 152t136.5 112.5t155 59.5q19 4 37 4q42 0 76 -22q49 -30 72 -80.5t22 -106.5q0 -160 -90.5 -295t-236.5 -184q30 -29 46.5 -43t46.5 -31t54 -17q29 0 51.5 14.5t22.5 43.5q0 31 -14 48t-37 17q-15 0 -30 -6.5t-24.5 -13t-11.5 -6.5v2 q2 4 9 12t23.5 17.5t33.5 9.5q27 0 50 -21t23 -61q0 -36 -29 -58t-67 -22q-73 0 -174 106q-23 -10 -70 -17q-42 -7 -72 -7h-8q-31 1 -59.5 8t-56.5 21.5t-45 42t-17 65.5zM39 80q0 -53 45.5 -80t105.5 -27q53 0 127 19q-1 1 -4 3.5t-5.5 5t-4.5 5.5q-40 -16 -84 -16 q-71 0 -109.5 42.5t-46.5 110.5q-24 -18 -24 -63zM121 166q34 -13 71 -37.5t58 -42.5t59 -53q7 9 17 25.5t15.5 24.5t16 14.5t23.5 6.5q6 0 11 -4t5 -10q0 -16 -12.5 -29.5t-32 -26.5t-24.5 -18q10 -10 16 -14q117 53 201 174.5t84 267.5q0 107 -35 154q-30 40 -82 40 q-9 0 -20 -1q-87 -12 -160 -64.5t-117.5 -123t-69 -145t-24.5 -138.5zM123 137q7 -52 35.5 -91.5t74.5 -39.5q52 0 60 8q-104 96 -170 123zM437 -50q0 5 2.5 10.5t5.5 10t9.5 10.5t11 9.5t12.5 9.5t12 8.5t11 7.5q2 1 3 2v-10q-20 -15 -25.5 -36t-17.5 -29q-7 -6 -13 -6 q-4 0 -8 4q-3 4 -3 9z" />
<glyph unicode="R" horiz-adv-x="944" d="M-223 377q0 14 14 14q20 0 33.5 -14t19.5 -31t19.5 -31t34.5 -14q29 0 49 10q78 28 180.5 76.5t189 91.5t182.5 84t198 65.5t198 24.5q68 0 116 -32t48 -103q0 -97 -61.5 -196.5t-162.5 -168.5t-208 -81q33 -45 50 -66.5t50.5 -55t68.5 -48.5t74 -15q19 0 46 27t49 27 q20 0 20 -13q0 -29 -45 -45t-80 -16q-26 0 -51 7.5t-44 16t-41.5 28.5t-34.5 31.5t-34 39.5t-29 38l-28 40q-14 -2 -41 -2q-60 0 -125 22q-40 -88 -45 -127q-1 -4 -2 -4q-29 0 -29 20q0 59 31 144q-16 23 -18 43q-3 29 15 49.5t52 17.5q32 61 73 126.5t66 100.5l25 36 q11 16 18 16q9 0 16 -12.5t7 -22.5q0 -7 -2 -15t-4 -12l-2 -4l-51 -86q-74 -121 -84 -141q15 -8 28 -18.5t26.5 -25.5t21 -23.5t22 -27.5t18.5 -24q87 20 173 79.5t146 150.5t60 186q0 94 -96 115q-96 0 -196 -24t-194 -64.5t-179.5 -83.5t-189 -92t-185.5 -78 q-28 -9 -50 -9q-12 0 -22 3q-4 1 -11 3.5t-25 11.5t-32 19t-25 27t-11 35zM397 150q4 9 12.5 26.5t12.5 26.5q-30 -7 -30 -30q0 -10 5 -23zM442 111q58 -21 109 -21q21 0 31 2q-52 74 -99 98q-20 -39 -41 -79z" />
<glyph unicode="S" horiz-adv-x="526" d="M2 123q-1 17 -1 31q-1 46 13 70q17 31 54 30h4q31 -2 86 -39.5t120.5 -90.5t96.5 -71q49 49 49 113q0 41 -21 87.5t-46.5 82t-46.5 82t-21 88.5q0 72 51 116q49 43 117 42h6q60 -1 104.5 -43.5t44.5 -98.5q0 -30 -16 -30q-13 0 -28 20.5t-15 46.5q0 3 1 10.5t1 10.5 q0 25 -29.5 41t-60.5 16q-60 0 -93.5 -24.5t-33.5 -98.5q0 -29 23.5 -70.5t51 -79t51 -90t23.5 -100.5q0 -90 -65 -151q230 -144 426 -144q103 0 203 37q22 10 35.5 25.5t18 27.5t15 20.5t27.5 8.5q18 0 17 -14q0 -16 -22.5 -37.5t-61.5 -42t-101 -35t-131 -14.5 q-206 0 -447 151q-34 -24 -91.5 -38.5t-112.5 -14.5q-70 0 -129 45t-66 125zM27 139q0 -67 48.5 -113t119.5 -46q92 0 161 57q-36 24 -102 78t-114.5 87.5t-73.5 33.5q-24 0 -32 -20q-8 -18 -7 -65v-12z" />
<glyph unicode="T" horiz-adv-x="540" d="M-119 465q0 29 17 29q15 0 28 -23t13 -53q0 -37 32 -54.5t76 -17.5q34 0 70 5t62.5 10t68.5 20.5t60 21.5t66.5 29.5t58.5 28.5t65.5 33.5t60.5 31.5q22 12 79 44.5t91 50.5t83 34.5t89 16.5q64 0 112 -35t48 -105q0 -46 -24 -98.5t-52 -52.5q-16 0 -16 20 q0 19 10.5 34.5t23 24t23 24t10.5 34.5q0 65 -36.5 97t-96.5 32q-25 0 -52 -6t-59.5 -20.5t-52.5 -24.5t-60 -32t-52 -29q4 -6 4 -21l-6 -29l-74 -106q-77 -126 -127 -219t-61 -124l-11 -30q0 -31 15 -31q1 0 47 32.5t92 68.5t47 43q4 2 8 2t4 -4l-10 -25q-4 -5 -44 -39 t-78 -65l-38 -31q-16 -8 -33 -8q-16 0 -27 10.5t-13 20.5l-3 10q-2 6 -2 22q0 144 250 490q-19 -10 -77.5 -40.5t-84.5 -43t-79 -35.5t-89 -33t-84.5 -19t-93.5 -9q-14 0 -33.5 3t-46 12.5t-47.5 24.5t-36 42t-15 61z" />
<glyph unicode="U" horiz-adv-x="1001" d="M-143 463q0 24 14 24q23 0 30 -17t15.5 -49t28.5 -54q44 -29 74.5 -41.5t70.5 -12.5q29 0 61.5 7t59 15.5t63.5 28t59 31.5t63 40t57 39.5t59.5 44t54.5 40.5q44 35 82.5 59.5t56.5 32.5t25 8q17 0 28 -9.5t13 -19.5l2 -9q2 -6 2 -21q0 -37 -21 -94.5t-50 -113t-72 -126 t-73 -115.5t-68 -100t-43 -63q-7 -10 -7 -15l4 -6h-2q107 0 215.5 80t192.5 189q12 16 20 24q34 67 81.5 141t78.5 115l31 41q7 14 18 14q9 0 16 -12.5t7 -21.5q0 -7 -2 -15t-4 -12l-2 -4l-74 -107q-186 -302 -186 -368q0 -21 14 -21q5 0 86 50.5t82 58.5q4 2 8 2t4 -4 q0 -12 -60 -61.5t-91 -63.5q-16 -8 -33 -8q-45 0 -45 55q0 69 28 129q-199 -225 -376 -225q-56 0 -56 51q0 7 2.5 13.5t4.5 9.5l2 3l129 191q77 126 128.5 224t64.5 133l13 36q0 29 -14 29q-4 0 -12 -4t-22.5 -13.5t-25 -16t-31.5 -21.5t-30 -21q-28 -20 -93 -68.5 t-105.5 -75.5t-98.5 -60.5t-112.5 -49.5t-108.5 -16q-89 0 -160 64t-71 112z" />
<glyph unicode="V" horiz-adv-x="833" d="M-129 465q0 22 14 22q19 0 29.5 -13t13.5 -30.5t11.5 -40t21.5 -36.5q45 -30 74 -42t69 -12q78 0 188.5 54t198.5 119t163 119t91 54q17 0 28.5 -9.5t14.5 -19.5l3 -9q0 -3 1 -10.5t1 -10.5q0 -49 -35 -132t-84.5 -166.5t-100 -160t-85.5 -124.5t-37 -48q13 0 47 17 q253 140 508 495q11 17 28 37q0 12 -3 32t-3 28q0 22 11.5 38.5t21.5 16.5q20 0 20 -39q0 -50 -55 -127q-122 -169 -245 -295t-271 -211q-42 -12 -49 -12q-20 0 -34.5 11t-14.5 30q0 7 2 14.5t4 11.5l2 4l129 191q78 126 130 224t65 133l12 36q0 29 -15 29q-6 0 -28.5 -14.5 t-57.5 -39.5t-53 -36q-5 -3 -47.5 -35.5t-53.5 -40.5t-51 -36.5t-57.5 -38.5t-54 -32t-60.5 -31l-56 -21t-61 -16.5t-57 -4.5q-94 0 -163.5 66.5t-69.5 111.5z" />
<glyph unicode="W" horiz-adv-x="1150" d="M-119 465q0 22 15 22q24 0 33 -20t17.5 -51.5t24.5 -48.5q45 -30 74.5 -42t69.5 -12q78 0 188.5 54t198.5 119t163 119t91 54q17 0 28.5 -9.5t13.5 -19.5l3 -9q0 -3 1 -10.5t1 -10.5q0 -49 -35 -132.5t-84 -166t-100.5 -160t-84.5 -123.5t-36 -49q22 0 49 15 q239 106 408 354q48 84 81 150.5t41 91.5l9 24q1 12 8 19.5t14 7.5q12 0 12 -25q0 -49 -34.5 -131.5t-84.5 -167t-99 -160t-85.5 -126.5t-36.5 -52q24 0 54 15q149 70 269.5 198.5t205.5 290.5q8 24 10.5 35t2 15.5t-2.5 17.5t-2 32q0 24 9 43t20 19q22 0 22 -45 q-5 -62 -37 -127q-84 -165 -208.5 -297.5t-278.5 -204.5q-32 -12 -53 -12q-7 0 -16 2t-15 4.5t-6 3.5q-12 10 -12 29q0 7 2 15t4 13l2 4l100 150q-81 -83 -178 -152t-168 -69q-18 0 -32.5 12t-14.5 29q0 7 2 14.5t4 11.5l2 4l129 191q78 126 130 224t65 133l12 36 q0 29 -14 29q-4 0 -12 -4t-22.5 -13.5t-25 -16t-31.5 -21.5t-30 -21q-31 -21 -92 -66.5t-103.5 -74.5t-99 -62.5t-112 -50t-109.5 -16.5q-94 0 -164 66.5t-70 111.5z" />
<glyph unicode="X" horiz-adv-x="972" d="M-82 346q4 51 29 104t66 99.5t104 76t135 29.5q88 0 251.5 -55t244.5 -55v7.5t1.5 16.5t5 21t11 16.5t18.5 7.5q15 0 26.5 -15.5t4.5 -37.5q-8 -24 -41 -35q3 -103 29 -221q43 75 99.5 158.5t91.5 129.5l36 46q8 16 19 16q9 0 14.5 -11.5t5.5 -20.5q0 -8 -2 -16.5 t-4 -12.5l-2 -4l-129 -191q-67 -97 -109 -170q17 -47 30.5 -81t40.5 -83.5t54.5 -81t68.5 -54.5t87 -23q31 0 51.5 14t28.5 30t20 30t29 14q14 0 14 -14q0 -22 -18 -43q-50 -56 -121 -56q-51 0 -96 23.5t-73.5 53t-57.5 80.5t-42 81t-32 80q-68 -127 -68 -176q0 -23 -16 -23 q-21 0 -21 25q0 93 82 247q-31 128 -34 248q-62 0 -133 17.5t-125 38t-122 38t-124 17.5q-103 0 -185 -68.5t-108 -159.5q0 -11 5 -29t5 -26q0 -21 -7 -35t-15 -14q-23 0 -23 47zM774 551q14 5 19.5 9.5t5.5 14.5q0 9 -11 15q-3 2 -6 2t-4 -4q-4 -12 -4 -37z" />
<glyph unicode="Y" horiz-adv-x="917" d="M-133 465q0 22 16 22q18 0 28.5 -13.5t14 -31t11 -40t20.5 -35.5q23 -25 62.5 -39.5t82.5 -14.5q29 0 61.5 7t59 15.5t64.5 28.5t58.5 31.5t63 40.5t57 39t60.5 44t54 40q43 35 80 59t55.5 32.5t25.5 8.5q17 0 28.5 -9.5t14.5 -19.5l2 -9q0 -3 1 -10t1 -11 q0 -57 -52 -163t-114.5 -200.5t-114.5 -174.5t-52 -91l2 -4q107 0 216.5 80t190.5 189q33 45 61.5 102t43 91t39 58.5t59.5 24.5q10 0 10 -12q0 -9 -6 -21q-41 -55 -131.5 -225t-105.5 -195q-54 -92 -84 -129q20 -3 58.5 -9.5t69.5 -10.5t58 -4q44 0 70.5 17t35 37t21 37 t31.5 17q14 0 14 -16q0 -31 -54 -74t-120 -43q-41 0 -116.5 13t-86.5 14q-101 -121 -211 -121h-12q-68 4 -68 57q0 28 24 48.5t60.5 29.5t65.5 13t51 4q9 0 27.5 -1t27.5 -1q24 31 46.5 65.5t38.5 62.5t18 31q26 48 35 64q-169 -191 -361 -217q-28 0 -46.5 17t-18.5 36 q0 6 2 12t4 9l2 3l129 191q78 126 130.5 224t65.5 133l13 36q0 29 -17 29q-16 -3 -121 -76q-33 -22 -117 -84t-132.5 -94t-124 -62t-142.5 -30q-50 0 -96 21.5t-74.5 51.5t-45.5 59t-17 46zM465 -160q0 -13 15 -20.5t36 -7.5q73 0 160 100q-6 0 -18 1t-17 1q-9 0 -30.5 -2.5 t-58 -9t-62 -23t-25.5 -39.5z" />
<glyph unicode="Z" horiz-adv-x="616" d="M16 487q0 12 5.5 19.5t13.5 7.5q13 0 27 -21t14 -47q0 -45 33 -62t90 -17q93 0 197.5 36t184 81.5t185.5 103t180 86.5q49 18 92 18q64 0 110.5 -35t49.5 -106v-6q0 -51 -30 -102q-32 -54 -74 -54q-8 0 -13.5 5t-5.5 12q0 18 10 29t24.5 17t29.5 14t25 27t10 50 q0 63 -37.5 94t-96.5 31q-24 0 -49 -5.5t-57.5 -19.5t-48 -21.5t-56.5 -30.5t-47 -26q4 -6 4 -22l-6 -31l-73 -109q-18 -27 -54 -77h41q31 0 31 -13q0 -12 -31 -12h-57q-26 -38 -94 -143t-107 -158q122 -125 264 -125q36 0 75.5 8.5t55.5 22.5q8 8 22.5 28.5t27.5 29.5t32 9 q17 0 17 -12q0 -40 -76 -74q-68 -30 -157 -30h-21q-70 3 -128.5 34.5t-125.5 88.5q-63 -74 -127 -74q-37 0 -63.5 22t-26.5 60q0 31 25 57t69 27h6q48 0 92 -43q18 18 40 52t49 82t44 73q0 24 -17.5 41.5t-34.5 25.5t-17 10q0 13 33 13h94q107 164 141 209q-6 -1 -20 -11 q-13 -6 -78 -40.5t-86.5 -44.5t-78.5 -35t-91 -34.5t-83.5 -18.5t-94.5 -9q-19 0 -44 5.5t-58.5 19t-56 45t-22.5 75.5zM229 -10q0 -23 17 -41.5t43 -18.5q14 0 26 6.5t18 12.5t24 28.5t28 34.5q-37 37 -88 37q-27 0 -47.5 -17.5t-20.5 -41.5zM532 301q14 -17 19 -33 q2 3 20 33h-39z" />
<glyph unicode="_" horiz-adv-x="743" d="M57 -31q0 7 10.5 12t24.5 5h557q27 0 27 -17q0 -14 -27 -14h-557q-35 0 -35 14z" />
<glyph unicode="`" horiz-adv-x="227" d="M43 502q0 8 2 10q3 6 16 6q21 0 36.5 -11.5t24.5 -25.5t25 -29t35 -20q2 0 2 -2q-6 -2 -16 -2q-30 0 -77.5 21t-47.5 53z" />
<glyph unicode="a" horiz-adv-x="372" d="M-31 55q0 32 18.5 73t36.5 66l19 25q51 63 95 101t62 44l19 7q31 14 55 -7q18 -16 19 -45q0 -9 -2 -18q15 24 23.5 35.5t28.5 26t42 14.5q14 0 14 -12q0 -15 -6 -21q-182 -246 -182 -303q0 -18 16 -18q20 0 87 47t73 47q4 0 4 -4t-3.5 -10t-7.5 -11l-3 -4 q-33 -29 -61.5 -48.5t-44.5 -27.5t-27.5 -12t-15.5 -4h-5q-19 0 -30.5 11t-12.5 23l-2 11q0 35 12 72v-2q-20 -19 -53 -43.5t-57 -39.5l-23 -14q-23 -14 -47 -14q-41 0 -41 55zM8 45q0 -12 6 -14h3q15 0 61 28l7 5q7 5 16 11t21.5 16t25.5 20.5t28 24t27.5 27t24.5 28.5 t21 29.5t14 30.5t5 30q0 47 -22 47q-7 0 -17.5 -5.5t-23.5 -16.5t-25 -21.5t-27 -26t-24 -25t-21 -23t-14 -15.5q-10 -10 -24 -27t-38 -57t-24 -66z" />
<glyph unicode="b" d="M-25 68q0 2 5 22q19 62 63 141t93.5 148t96.5 128.5t78.5 94.5t34.5 35q21 0 21 -33q0 -17 -9 -29q-118 -149 -180 -237q10 11 33.5 22t38.5 13q37 4 55.5 -7.5t13.5 -56.5q0 -4 -3.5 -17t-19 -46t-40.5 -72q50 15 90 47q4 3 14.5 11.5t17.5 13t11 4.5t4 -4 q0 -31 -54.5 -64t-105.5 -41q-6 -6 -15.5 -18.5t-12.5 -16.5q-29 -34 -85 -74q-47 -33 -80 -33q-7 0 -13 1h4q-27 0 -43 19q-13 16 -13 40v9zM12 55q0 -12 4 -18t8 -6h3q56 0 145 112q-30 7 -48.5 31t-21.5 55q-90 -136 -90 -174zM129 236q0 -26 15.5 -45t43.5 -23 q27 40 43.5 71t19.5 43l3 11q3 10 3 18q0 17 -17 17q-45 0 -78 -25.5t-33 -66.5z" />
<glyph unicode="c" horiz-adv-x="272" d="M-27 70q0 65 82.5 171.5t143.5 127.5q15 6 24 6q29 1 41 -25q7 -15 7 -37q0 -14 -3 -32q-6 -34 -21 -52.5t-27 -20.5l-11 -1l2 2l-2 -2q-6 1 -6 24q0 5 19.5 36t19.5 52q-21 0 -45 -16q-45 -29 -116 -117t-71 -135q0 -26 35 -26q53 0 118 41.5t106.5 85t58.5 71.5 q2 0 4 -4q0 -31 -51 -84t-120 -95t-114 -44h-4q-37 0 -53 19q-16 20 -17 55z" />
<glyph unicode="d" horiz-adv-x="368" d="M-35 55q0 73 89 185t161 131q32 10 51.5 -9t22.5 -55q47 71 109.5 150.5t101.5 123.5l39 44q10 10 20 10l8 -2q13 -10 13 -25q0 -8 -3 -17t-7 -15l-3 -5l-145 -178q-219 -291 -219 -352q0 -18 16 -18h2q19 0 83 46q66 48 72.5 48t6.5 -4t-3.5 -10t-7.5 -11l-3 -4 q-111 -92 -151 -92h-3q-19 2 -30.5 13t-12.5 21l-2 11q0 29 10 63q-117 -104 -172 -104q-43 0 -43 55zM2 43q0 -14 6 -14q23 0 66 30q31 18 95.5 93t94.5 120q0 23 -3 32.5t-15 13.5q-2 1 -4 1q-11 0 -31 -14q-58 -34 -133.5 -120t-75.5 -142z" />
<glyph unicode="e" horiz-adv-x="266" d="M-18 39q-3 12 -3 27q0 36 22 88q31 72 82 133.5t95 81.5q17 10 36 10q8 0 14 -1q26 -5 36 -32q7 -20 7.5 -39.5t-2 -35t-14 -32t-20 -28t-28.5 -26t-30 -22t-34.5 -20.5t-33 -17t-34 -16.5t-28.5 -13.5q-4 -1 -11 -3t-11 -3q-13 -36 -7 -59q5 -10 22 -10q5 0 11 1 q26 4 56 16t51 25q39 25 56 39t48 45q10 14 24.5 27t20.5 10q1 -1 1 -3q0 -5 -6 -17q-8 -18 -19 -33q-45 -52 -113 -92q-81 -45 -128 -45t-60 45zM39 123q204 85 204 181q0 12 -3 24q-3 5 -9 5q-13 0 -41 -22q-90 -63 -151 -188z" />
<glyph unicode="f" horiz-adv-x="159" d="M-109 -76q0 97 193 369q-16 47 -49 98q-1 1 -20 9.5t-36 17t-32 22.5t-15 27q0 10 15 10q34 0 106 -63q1 1 -4 2h127q169 222 181 222q1 0 2.5 -1.5t2.5 -1.5q9 0 15 -9.5t6 -17.5t-3 -17t-6 -15l-3 -5q-53 -65 -123 -155q9 0 18.5 -4.5t9.5 -8.5q0 -6 -9 -10t-19 -4h-21 q-16 -22 -104 -139q4 -20 4 -62q0 -49 -22 -121t-68 -134t-100 -62q-19 0 -30.5 11.5t-13.5 22.5l-2 11v8zM-76 -88q0 -16 13 -16q41 0 80.5 57.5t61 125t21.5 109.5q0 4 -1 14t-1 15q-174 -246 -174 -305zM68 389q5 -6 9.5 -16.5t6.5 -14.5q3 -6 18 -41q27 37 54 72h-88z " />
<glyph unicode="g" horiz-adv-x="323" d="M-260 -170q0 36 22.5 61t59.5 36t70.5 15.5t70.5 4.5q48 0 125 -15q48 68 105 183l-3 -4q-20 -19 -53 -43.5t-57 -39.5l-23 -14q-25 -14 -41 -14q-49 0 -49 55q0 32 18.5 73t36.5 66l19 25q51 63 95 101t62 44l19 7q16 4 21 4q55 0 55 -70v-8q39 80 96 80q10 0 10 -12 q0 -15 -6 -21q-58 -78 -146 -234.5t-110 -187.5q19 -4 72 -14t72.5 -13.5t61 -10.5t65.5 -9.5t56.5 -5t61.5 -2.5q220 0 418 86q15 6 42.5 39t53.5 33q6 0 10.5 -4.5t4.5 -10.5q0 -38 -94 -76q-212 -90 -447 -90q-130 0 -391 56q-62 -78 -125.5 -119t-140.5 -41 q-37 0 -77 25t-40 65zM-231 -168q0 -32 26.5 -48.5t57.5 -16.5q116 0 217 145q-12 1 -35 4.5t-42 5.5t-36 2q-29 0 -58.5 -4t-60.5 -13.5t-50 -29t-19 -45.5zM8 45q0 -14 6 -14q17 0 62 28q6 3 15.5 9.5t36.5 27t50.5 43t48.5 58t39 71.5q0 58 -20 60q-12 0 -36 -18.5 t-43 -38t-44.5 -46.5t-28.5 -30q-10 -10 -24 -27t-38 -57t-24 -66z" />
<glyph unicode="h" horiz-adv-x="368" d="M-41 12q0 54 40.5 138.5t98 166t115.5 155.5t98.5 119.5t42.5 45.5q9 0 15 -9.5t6 -21.5q0 -18 -10 -31q-140 -181 -218 -292q39 34 90 63t89 33q31 3 48.5 -20.5t-3.5 -45.5q-160 -221 -160 -260q0 -30 16 -30q12 0 49.5 22.5t69 45.5t31.5 24q4 2 8 2q6 0 6 -4 t-3.5 -10t-7.5 -11l-3 -4q-110 -92 -154 -92q-19 0 -30.5 11t-12.5 23l-2 11v12q0 45 24 97q28 59 97 163q24 36 4 34q-2 0 -6 -1q-128 -50 -244 -205q-28 -46 -43.5 -79t-17.5 -42l-2 -10q-5 -12 -17 -12q-14 0 -14 14z" />
<glyph unicode="i" horiz-adv-x="174" d="M-23 41q0 98 142 303q10 12 29.5 22.5t35.5 10.5q15 0 15 -12t-9 -21q-73 -100 -117.5 -173t-52.5 -95l-8 -23q-2 -6 -2 -14q0 -16 17 -16q14 -2 50.5 20.5t66.5 45.5t30 26q4 2 10 2q4 0 4 -4t-3.5 -10t-6.5 -11l-4 -4q-104 -92 -151 -92q-21 1 -32.5 12t-12.5 22z M186 444q0 22 19.5 48t36.5 26q14 0 14 -18q0 -24 -18.5 -49t-34.5 -25q-6 0 -8 2q-9 3 -9 16z" />
<glyph unicode="j" horiz-adv-x="151" d="M-266 -188q0 30 15 57t35 45.5t51.5 37t53 27.5t50.5 21q53 157 121 267t124 110q11 -4 11 -12q0 -12 -9 -21q-137 -189 -196 -326q39 9 82.5 33.5t68.5 43t27 16.5q3 -4 3 -9q0 -18 -52 -48q-66 -38 -142 -66q-17 -33 -23 -45t-29 -47.5t-41 -54t-48.5 -39t-62.5 -27.5 q-6 -1 -11 -1q-13 0 -19 8q-9 12 -9 30zM-240 -190q0 -11 4 -11q24 0 65.5 34t53.5 61q4 7 18.5 32.5t20.5 38.5q-162 -67 -162 -155zM186 444q0 23 19.5 48.5t36.5 25.5q14 0 14 -18q0 -20 -12 -41q-23 -33 -41 -33q-17 0 -17 18z" />
<glyph unicode="k" horiz-adv-x="352" d="M-45 12q0 53 40 136.5t97 165.5t115.5 156.5t99.5 120.5t45 46q19 -3 19 -31q0 -16 -11 -31q-190 -243 -272 -372q25 14 63 29t59.5 24.5t43.5 30.5t33 53q1 5 -2.5 17t0.5 16q15 14 33 2t18 -33q0 -31 -12.5 -54t-35.5 -36.5t-40 -20.5t-41 -12.5t-25 -5.5 q29 -15 29 -53q-12 -92 -12 -107q0 -14 4 -21t8 -8t12 -1h1q19 0 73 42q55 43 55 50q4 2 8 2q7 0 7 -4q0 -16 -61 -66q-60 -49 -88 -49h-1q-12 1 -21 3t-16 8t-11.5 10.5t-7.5 15.5t-4.5 18t-2 23t-0.5 24v29v31q0 33 -2 43q-77 -30 -105 -66q-27 -45 -42.5 -77t-16.5 -41 l-2 -9q-5 -12 -17 -12q-14 0 -14 14z" />
<glyph unicode="l" horiz-adv-x="174" d="M-23 41q0 44 37 120.5t90 154t107 148.5t92.5 116t42.5 45q10 10 19 10t13.5 -10t4.5 -19q0 -8 -2.5 -17t-4.5 -13l-3 -5l-146 -178q-217 -290 -217 -354q0 -16 17 -16t53.5 22.5t65 44.5t28.5 25q2 2 8 2t6 -4q1 -5 -2.5 -11.5t-7.5 -9.5l-4 -4q-106 -92 -151 -92h-3 q-18 0 -30 10q-12 12 -12 24z" />
<glyph unicode="m" horiz-adv-x="565" d="M-47 27q0 26 10 51q70 166 117.5 231.5t93.5 67.5q10 0 10 -12q0 -13 -15 -36t-39.5 -54.5t-31.5 -41.5q144 144 217 144q17 0 30 -11t13 -26q0 -10 -12.5 -29t-31 -44t-25.5 -36q95 102 198 142q12 3 30 4h3q16 -1 32 -11q17 -12 17 -32q0 -17 -4 -21 q-159 -222 -159 -262q0 -28 18 -28q8 0 44.5 22.5t69.5 45.5t33 24q4 2 11 2q4 0 4 -4t-4 -10t-8 -11l-3 -4q-116 -89 -151 -92q-22 0 -34.5 17t-12.5 42q0 47 29 105t92 153q24 31 18 37q-6 0 -18 -4q-158 -60 -289 -268q-16 -21 -25.5 -41.5t-13 -28.5t-10.5 -8 q-11 0 -11 27q0 23 11 51q23 64 49.5 117t40.5 74t51 75q-75 -28 -152.5 -103t-130.5 -163q-14 -18 -23 -39t-14 -30t-14 -9q-10 0 -10 27z" />
<glyph unicode="n" horiz-adv-x="382" d="M-45 27q0 26 10 51q118 299 211 299q10 0 10 -12t-14.5 -35t-42 -59t-33.5 -44q95 101 203 146q20 5 35 5q47 0 47 -44q0 -17 -4 -21q-158 -216 -158 -260q0 -13 3 -20.5t6 -8.5t8 -1q8 0 44.5 22.5t69.5 45.5t33 24q4 2 10 2q4 0 4 -4t-3.5 -10t-7.5 -11l-3 -4 q-118 -92 -152 -92q-19 0 -33 15t-14 44q0 47 29 105t92 153q23 31 19 37q-7 0 -19 -4q-84 -32 -158.5 -104.5t-130.5 -163.5q-11 -17 -21.5 -39.5t-16.5 -30.5t-13 -8q-10 0 -10 27z" />
<glyph unicode="o" d="M-31 45v9q0 68 45 146q48 82 115 135.5t119 53.5q55 0 55 -70q0 -60 -43 -129q44 3 79.5 27.5t53.5 61.5q3 10 13 10q14 0 14 -23q-22 -46 -68 -75t-102 -29q-3 0 -5.5 -1t-4.5 -2t-4 -4t-3.5 -4.5t-4 -5.5t-3.5 -6q-4 -6 -13 -18t-31.5 -35.5t-46.5 -42.5t-56 -34 t-62 -15q-45 0 -47 51zM18 59q0 -15 4.5 -22.5t6.5 -7.5h6q70 2 176 139q-39 9 -64.5 37t-25.5 67q0 15 2 21q-42 -45 -73.5 -109.5t-31.5 -124.5zM147 272q0 -26 20.5 -47.5t57.5 -31.5q33 65 33 104q0 27 -12 38t-27 11q-36 0 -54 -27t-18 -47z" />
<glyph unicode="p" horiz-adv-x="364" d="M-121 -164q0 79 62.5 215t128.5 233q63 91 80 91h2q10 -8 14 -33q1 -5 0.5 -8.5t-0.5 -6t-2 -6.5t-4 -7.5t-7 -12t-10 -16.5q20 28 72.5 56.5t83.5 33.5q11 2 21 2q26 0 40 -12q21 -16 5 -52q-162 -225 -162 -262q0 -13 2.5 -19t5 -7t10.5 -2q10 -2 47.5 21t70 46.5 t32.5 24.5q4 2 8 2q6 0 6 -4t-3.5 -10t-7.5 -11l-3 -4q-115 -92 -154 -92q-22 0 -34.5 17t-12.5 42q0 46 29 103t94 155q21 34 16 37q-50 0 -129 -63t-100 -103q-155 -266 -164 -364q0 -29 14 -29q7 0 12 2t7 2q12 0 12 -18q0 -6 -13 -9.5t-20 -3.5q-49 0 -49 60v12z" />
<glyph unicode="q" horiz-adv-x="315" d="M-29 55q0 32 18.5 73t36.5 66l19 25q51 63 95 101t62 44l19 7q10 4 25 4q42 0 49 -66q29 47 36 56.5t13 9.5q14 0 20.5 -10t6.5 -23l-6 -29l-25 -39q-24 -38 -60 -99.5t-72 -128t-61.5 -132t-25.5 -102.5q0 -21 14 -21q7 0 11 2t6 2q12 0 12 -18q0 -6 -13 -9.5t-20 -3.5 q-47 0 -47 58q0 102 82 266q-20 -16 -47 -34.5t-43 -29.5l-17 -10q-21 -14 -45 -14q-43 0 -43 55zM8 43q0 -14 6 -14q37 1 112 66.5t105 111.5q3 4 11 17t11.5 19t9 16.5t7.5 19t2 16.5q0 27 -16 27q-14 0 -39 -17q-35 -20 -121 -110q-10 -10 -24.5 -27.5t-39 -58 t-24.5 -66.5z" />
<glyph unicode="r" horiz-adv-x="305" d="M-37 27q0 31 10 51q85 183 124 237q44 63 80 63q4 0 7 -2q11 -4 11 -9q0 -11 -12 -30.5t-32.5 -45.5t-27.5 -37q117 123 176 122q43 0 43 -59q0 -42 -14.5 -70.5t-27.5 -37t-21 -8.5q-12 0 -14 14.5t3 22.5q1 2 11 20.5t18.5 39.5t11.5 40q0 6 -3.5 8.5t-9 2t-11 -2.5 t-9.5 -4q-143 -78 -253 -266q-8 -13 -15.5 -27t-11.5 -22t-8 -15t-7.5 -9.5t-7.5 -2.5q-10 0 -10 27z" />
<glyph unicode="s" horiz-adv-x="299" d="M-45 106q0 29 21.5 51.5t52.5 22.5q15 0 30 -6q5 7 21 26t27.5 34t34 48.5t48.5 75.5v6q-1 5 0 9.5t8 7.5q4 2 9.5 1.5t13.5 -1.5q24 -5 38 -63q10 -42 10 -92q1 -20 -1 -40q-6 -72 -32 -112q14 -1 34 4.5t35 11.5t17 6t2 -2q0 -5 -12 -15t-34.5 -20t-44.5 -10 q-10 0 -14 2q-9 -10 -18.5 -18t-16.5 -13t-17 -9t-14.5 -6t-16 -3.5t-14 -2t-15.5 -1t-15 -0.5h-7q-79 0 -118 65q-12 21 -12 43zM-18 98q0 -6 2 -10q3 4 57 66q-2 0 -5 1t-5 1q-17 0 -33 -18.5t-16 -39.5zM-12 76q12 -21 43.5 -36t62.5 -15q54 0 82 43q-31 16 -113 73 q-42 -42 -75 -65zM82 162q9 -6 34.5 -24.5t43 -29.5t33.5 -18q17 29 23 85q3 29 2 55q0 24 -2 44q-5 44 -13 45q-75 -109 -111 -147z" />
<glyph unicode="t" horiz-adv-x="167" d="M-29 41q0 113 176 348h-88q-26 0 -26 14q0 13 26 13h109q168 221 186 221q10 0 16.5 -9t6.5 -22q0 -8 -2.5 -17t-4.5 -13l-3 -5l-127 -155h14q29 0 29 -13q0 -14 -29 -14h-35q-215 -289 -215 -350q0 -16 16 -16q17 -2 54 20.5t65.5 45.5t28.5 26q4 2 10 2q4 0 4 -4 q0 -5 -3.5 -11.5t-6.5 -9.5l-4 -4q-106 -92 -146 -92h-5h-1q-22 0 -33 11t-11 23z" />
<glyph unicode="u" horiz-adv-x="362" d="M-23 41v12q0 19 18 70t46 108.5t67.5 101.5t75.5 44q15 0 15 -12t-9 -21q-73 -100 -117.5 -173t-52.5 -95l-8 -23q-2 -6 -2 -14q0 -16 17 -16q7 0 56.5 26t86.5 49q8 27 28 71t48 92t62 82t63 34q14 0 14 -12q0 -13 -8 -21q-180 -246 -180 -303q0 -5 1 -8t3 -5t3.5 -2.5 t5.5 -1.5l3 -1q14 -3 51 19.5t67.5 46t30.5 26.5q4 2 9 2q6 0 6 -4t-3.5 -10t-7.5 -11l-4 -4q-116 -92 -153 -92q-19 0 -30.5 11t-12.5 23l-2 11v27q-77 -47 -102.5 -59.5t-38.5 -12.5q-19 0 -30.5 11t-13.5 23z" />
<glyph unicode="v" horiz-adv-x="313" d="M-29 33q0 42 33 123t86 151t98 70q11 0 11 -12q0 -15 -6 -21q-2 -2 -20 -26t-28 -37.5t-30 -42t-33 -48t-30 -46.5t-26.5 -47t-16.5 -39.5t-7 -32.5q0 -7 2 -7q29 0 57 14t46.5 29.5t43 49.5t34 49t32.5 53q-14 14 -14 37q0 55 55 89t104 34q17 0 17 -4h-2 q-7 0 -51.5 -52t-67.5 -90q78 3 158 66q5 4 16.5 13.5t20 16.5t12.5 7q2 0 2 -4q0 -20 -37.5 -51t-91.5 -53q-46 -19 -82 -20q-6 0 -12 1q-60 -100 -94 -137q-67 -72 -140 -72q-39 0 -39 39zM227 250q0 -4 4 -12q35 58 68 96q-27 -12 -49.5 -38t-22.5 -46z" />
<glyph unicode="w" horiz-adv-x="509" d="M-20 27q0 40 33.5 122.5t87.5 155t100 72.5q10 0 10 -10q0 -4 -1.5 -9.5t-3 -9t-1.5 -4.5q-86 -112 -143 -206t-56 -124q12 3 27 15q56 47 154.5 160.5t156.5 164.5q23 23 59 23q11 0 11 -12q0 -15 -6 -21q-2 -2 -20 -26t-28 -37.5t-30 -42t-33 -48t-30 -46.5t-26.5 -47 t-16.5 -39.5t-7 -32.5q0 -7 2 -9q28 -4 57.5 12t57.5 49t48.5 62.5t45.5 71.5q-16 13 -16 41q0 53 55.5 87t107.5 34q19 0 19 -4q-4 0 -27 -22.5t-52 -57.5t-46 -62q33 0 69 16t60 35.5t45.5 35.5t30.5 16q2 0 2 -4q0 -14 -31 -41q-51 -40 -94 -61t-96 -21q-2 -3 -16 -26 t-19 -30.5t-20 -29.5t-24 -32t-24.5 -28t-28.5 -27t-29.5 -19t-33.5 -14.5t-35 -4.5q-39 0 -39 43q0 59 74 196q-1 -1 -67.5 -81t-109.5 -119t-71 -39q-31 3 -32 35zM436 250q0 -8 6 -14q46 71 72 100q-28 -11 -53 -38t-25 -48z" />
<glyph unicode="x" horiz-adv-x="313" d="M-575 -94q0 10 18 10q19 0 32.5 -10t20.5 -21.5t23 -21.5t39 -10q24 0 45 6q126 40 241 116.5t254 194.5q14 77 43 143q0 1 1.5 4t2.5 5.5t2 6.5t1 7t-0.5 6t-2.5 4.5t-6 1.5q-15 0 -61.5 -32.5t-57.5 -32.5q-8 0 -8 8q0 21 57 52.5t101 31.5q47 0 47 -37q0 -15 -6 -31 t-17 -37.5t-14 -27.5q7 6 38 33.5t52.5 46t48.5 36t41 17.5q17 0 17 -15q0 -24 -14 -31t-45 -16.5t-58 -33.5q-67 -59 -96 -86q-25 -77 -25 -127q0 -25 6 -43q7 -3 48.5 20t79.5 47l38 25q4 2 11 2q4 0 4 -4q0 -13 -63 -55.5t-99 -57.5q-10 -4 -27 -4q-22 0 -34 12.5 t-14.5 32.5t-1 41t4.5 40q2 7 2 11q-134 -114 -246 -187t-239 -112q-32 -8 -51 -8q-41 0 -87 21.5t-46 58.5z" />
<glyph unicode="y" horiz-adv-x="331" d="M-256 -158q0 35 20 60.5t53 37t63.5 16.5t62.5 5q69 0 151 -16q43 55 80 129q-124 -78 -154 -78q-19 0 -30.5 11t-13.5 23l-1 11v12q0 19 18 70t46 108.5t67.5 101.5t75.5 44q15 0 15 -12t-9 -21q-73 -100 -117.5 -173t-52.5 -95l-8 -23q-2 -6 -2 -14q0 -16 17 -16 q6 0 42 19.5t76.5 43t49.5 27.5q4 8 11 23q18 38 28 58t27.5 53.5t31 52t31.5 39t35.5 29.5t35.5 9q10 0 10 -12q0 -15 -6 -21q-43 -58 -125 -203t-133 -209q8 -2 32.5 -8.5t35 -9t32 -7.5t34.5 -7.5t31.5 -5.5t34.5 -4t32 -1q27 0 86 13q13 4 38.5 34.5t51.5 30.5 q8 0 14 -6q2 -2 2 -8q0 -32 -63.5 -60t-143.5 -28q-35 0 -71 6.5t-93.5 22t-68.5 18.5q-128 -156 -255 -156h-5q-41 0 -80 23t-39 63zM-231 -156q0 -29 30 -46t62 -17q48 0 102 33q57 39 115 108q-81 15 -129 15q-43 0 -80.5 -7t-68.5 -29.5t-31 -56.5z" />
<glyph unicode="z" horiz-adv-x="327" d="M-35 -268q0 107 94 278q-4 -2 -12 -2q-18 0 -28.5 10.5t-10.5 28.5q0 14 10 24.5t29 10.5q21 0 39 -23q39 64 67.5 108t38.5 59t27.5 44t46.5 80q-42 -1 -96 -25t-97 -66.5t-44 -86.5q10 -18 -13 -18q-32 0 -32 32q0 30 50 93.5t50 95.5q0 8 5 8q2 0 5 -2q15 -8 15 -31 q0 -10 -7 -28q74 55 162 55q62 0 62 -43q0 -17 -4 -21q-160 -221 -160 -260q0 -30 16 -30q12 -2 49.5 21t69 46t31.5 25q4 2 8 2q6 0 6 -4t-3.5 -10t-6.5 -11l-4 -4q-111 -92 -151 -92h-3q-37 3 -41 31q-4 -8 -14 -23q18 -48 18 -123q0 -40 -11 -84.5t-41.5 -82.5t-72.5 -38 q-47 0 -47 56zM2 -276q0 -21 14 -21q42 0 68.5 63t26.5 115q0 37 -11 90q-98 -179 -98 -247zM37 47q0 -7 8 -10q5 -1 10 -1q8 0 15 3q-11 14 -25 14q-8 0 -8 -6z" />
<glyph unicode="&#xa8;" horiz-adv-x="268" d="M45 440q0 22 18 41t41 19t23 -15q0 -17 -23.5 -39t-42.5 -22q-16 0 -16 16zM121 440q0 17 17 38.5t42 21.5q23 0 23 -15q0 -20 -22.5 -40.5t-43.5 -20.5q-16 0 -16 16z" />
<glyph unicode="&#xad;" horiz-adv-x="516" d="M57 299q0 16 35 16h285q26 0 26 -16q0 -14 -26 -14h-285q-35 0 -35 14z" />
<glyph unicode="&#xb4;" horiz-adv-x="227" d="M43 430q0 2 2 2q19 5 35 20t25 29t24.5 25.5t36.5 11.5q18 0 18 -16q0 -32 -47.5 -53t-77.5 -21z" />
<glyph unicode="&#xb8;" horiz-adv-x="221" d="M49 2q0 31 19 31q5 0 8.5 -4.5t3.5 -10.5q0 -7 -6 -16q0 -15 14.5 -31t30.5 -16q28 0 28 22q0 9 -15 21.5t-15 28.5q0 9 6 12l37 -23q16 -20 16 -41q0 -20 -12 -33.5t-33 -13.5q-34 0 -58 20t-24 54z" />
<glyph unicode="&#xbf;" horiz-adv-x="661" d="M-104 -90l8 22l88 115q72 94 128.5 176t86 133t48.5 90t24.5 55t5.5 21q0 7 4.5 12.5t8 7t5.5 1.5q14 -3 14 -15q0 -1 -1 -4t-1 -4q-11 -64 -58.5 -157t-113 -187t-112.5 -156.5t-88 -111.5q36 0 90 -20.5t96 -20.5q96 0 182.5 53t139.5 144t53 194q0 80 -43 80 t-122.5 -60.5t-82.5 -87.5q-3 -38 -18 -63t-35 -25q-17 0 -17 25q0 24 35 74q29 38 109 98.5t131 60.5q67 0 67 -102q0 -168 -119.5 -292t-275.5 -124q-47 0 -112.5 23.5t-73.5 25.5q-3 0 -6.5 -1t-8.5 -2.5t-8 -2.5q-8 -10 -16 -10q-12 2 -12 35zM295 612q0 22 8.5 40 t18.5 18q18 0 18 -39q0 -17 -13 -47.5t-20 -30.5q-12 3 -12 59z" />
<glyph unicode="&#xc0;" horiz-adv-x="1224" d="M14 174q-4 22 0 39t15 20q11 2 22 -12t15 -37q6 -31 1 -46.5t2 -33.5t37 -45q79 -68 190 -80.5t216 23t188 104.5q294 240 502 433q23 20 55.5 51t51 48t20.5 17q6 12 12.5 14.5t9.5 -0.5l3 -3q12 -9 13.5 -24.5t-3.5 -26.5l-4 -11l-129 -190q-77 -126 -123 -215.5 t-54 -116.5l-7 -27q-3 -16 2 -22.5t11 -4.5l7 1q12 4 51.5 30.5t73.5 50.5l33 25q18 8 14 -6l-10 -20q-4 -5 -39.5 -31t-69.5 -49l-33 -23q-33 -11 -49.5 -3t-21.5 23l-4 15q-13 67 67 227h-94q-14 0 -10 6q3 7 19.5 12t23.5 3q73 -4 78 10h2q61 115 164 262 q-29 -29 -43 -41q-200 -188 -504 -434q-87 -71 -195 -108.5t-225.5 -24t-204.5 89.5q-22 18 -45.5 57.5t-30.5 73.5zM1323 754q0 8 2 10q3 6 16 6q21 0 36.5 -11.5t24.5 -25.5t25 -29t35 -20q2 0 2 -2q-6 -2 -16 -2q-30 0 -77.5 21t-47.5 53z" />
<glyph unicode="&#xc1;" horiz-adv-x="1224" d="M14 174q-4 22 0 39t15 20q11 2 22 -12t15 -37q6 -31 1 -46.5t2 -33.5t37 -45q79 -68 190 -80.5t216 23t188 104.5q294 240 502 433q23 20 55.5 51t51 48t20.5 17q6 12 12.5 14.5t9.5 -0.5l3 -3q12 -9 13.5 -24.5t-3.5 -26.5l-4 -11l-129 -190q-77 -126 -123 -215.5 t-54 -116.5l-7 -27q-3 -16 2 -22.5t11 -4.5l7 1q12 4 51.5 30.5t73.5 50.5l33 25q18 8 14 -6l-10 -20q-4 -5 -39.5 -31t-69.5 -49l-33 -23q-33 -11 -49.5 -3t-21.5 23l-4 15q-13 67 67 227h-94q-14 0 -10 6q3 7 19.5 12t23.5 3q73 -4 78 10h2q61 115 164 262 q-29 -29 -43 -41q-200 -188 -504 -434q-87 -71 -195 -108.5t-225.5 -24t-204.5 89.5q-22 18 -45.5 57.5t-30.5 73.5zM1323 684q0 2 2 2q19 5 35 20t25 29t24.5 25.5t36.5 11.5q18 0 18 -16q0 -32 -47.5 -53t-77.5 -21z" />
<glyph unicode="&#xc2;" horiz-adv-x="1224" d="M14 174q-4 22 0 39t15 20q11 2 22 -12t15 -37q6 -31 1 -46.5t2 -33.5t37 -45q79 -68 190 -80.5t216 23t188 104.5q294 240 502 433q23 20 55.5 51t51 48t20.5 17q6 12 12.5 14.5t9.5 -0.5l3 -3q12 -9 13.5 -24.5t-3.5 -26.5l-4 -11l-129 -190q-77 -126 -123 -215.5 t-54 -116.5l-7 -27q-3 -16 2 -22.5t11 -4.5l7 1q12 4 51.5 30.5t73.5 50.5l33 25q18 8 14 -6l-10 -20q-4 -5 -39.5 -31t-69.5 -49l-33 -23q-33 -11 -49.5 -3t-21.5 23l-4 15q-13 67 67 227h-94q-14 0 -10 6q3 7 19.5 12t23.5 3q73 -4 78 10h2q61 115 164 262 q-29 -29 -43 -41q-200 -188 -504 -434q-87 -71 -195 -108.5t-225.5 -24t-204.5 89.5q-22 18 -45.5 57.5t-30.5 73.5zM1282 713q0 1 51 28t66 33q6 4 14 4q15 0 25 -18q4 -8 12.5 -25.5t13 -25.5t15 -19t24.5 -18q-1 -1 -1 -3.5t-2 -3.5t-9 -1q-40 0 -92 63q-8 -2 -20.5 -6 t-17.5 -6t-14.5 -4.5t-15.5 -3t-14.5 -1.5t-18.5 -1q-16 0 -16 8z" />
<glyph unicode="&#xc3;" horiz-adv-x="1224" d="M14 174q-4 22 0 39t15 20q11 2 22 -12t15 -37q6 -31 1 -46.5t2 -33.5t37 -45q79 -68 190 -80.5t216 23t188 104.5q294 240 502 433q23 20 55.5 51t51 48t20.5 17q6 12 12.5 14.5t9.5 -0.5l3 -3q12 -9 13.5 -24.5t-3.5 -26.5l-4 -11l-129 -190q-77 -126 -123 -215.5 t-54 -116.5l-7 -27q-3 -16 2 -22.5t11 -4.5l7 1q12 4 51.5 30.5t73.5 50.5l33 25q18 8 14 -6l-10 -20q-4 -5 -39.5 -31t-69.5 -49l-33 -23q-33 -11 -49.5 -3t-21.5 23l-4 15q-13 67 67 227h-94q-14 0 -10 6q3 7 19.5 12t23.5 3q73 -4 78 10h2q61 115 164 262 q-29 -29 -43 -41q-200 -188 -504 -434q-87 -71 -195 -108.5t-225.5 -24t-204.5 89.5q-22 18 -45.5 57.5t-30.5 73.5zM1307 741q0 7 13 14t30 7t49 -20.5t47 -20.5q17 0 29 6q4 0 4 -2q0 -11 -16 -26t-40 -15q-25 0 -39.5 8.5t-18 18t-13 18t-25.5 8.5q-20 0 -20 4z" />
<glyph unicode="&#xc4;" horiz-adv-x="1224" d="M14 174q-4 22 0 39t15 20q11 2 22 -12t15 -37q6 -31 1 -46.5t2 -33.5t37 -45q79 -68 190 -80.5t216 23t188 104.5q294 240 502 433q23 20 55.5 51t51 48t20.5 17q6 12 12.5 14.5t9.5 -0.5l3 -3q12 -9 13.5 -24.5t-3.5 -26.5l-4 -11l-129 -190q-77 -126 -123 -215.5 t-54 -116.5l-7 -27q-3 -16 2 -22.5t11 -4.5l7 1q12 4 51.5 30.5t73.5 50.5l33 25q18 8 14 -6l-10 -20q-4 -5 -39.5 -31t-69.5 -49l-33 -23q-33 -11 -49.5 -3t-21.5 23l-4 15q-13 67 67 227h-94q-14 0 -10 6q3 7 19.5 12t23.5 3q73 -4 78 10h2q61 115 164 262 q-29 -29 -43 -41q-200 -188 -504 -434q-87 -71 -195 -108.5t-225.5 -24t-204.5 89.5q-22 18 -45.5 57.5t-30.5 73.5zM1313 702q0 22 18 41t41 19t23 -14q0 -17 -23.5 -39.5t-42.5 -22.5q-16 0 -16 16zM1389 702q0 17 17 38.5t42 21.5q22 0 22 -14q0 -20 -22.5 -41t-42.5 -21 q-16 0 -16 16z" />
<glyph unicode="&#xc5;" horiz-adv-x="1224" d="M14 174q-4 22 0 39t15 20q11 2 22 -12t15 -37q6 -31 1 -46.5t2 -33.5t37 -45q79 -68 190 -80.5t216 23t188 104.5q294 240 502 433q23 20 55.5 51t51 48t20.5 17q6 12 12.5 14.5t9.5 -0.5l3 -3q12 -9 13.5 -24.5t-3.5 -26.5l-4 -11l-129 -190q-77 -126 -123 -215.5 t-54 -116.5l-7 -27q-3 -16 2 -22.5t11 -4.5l7 1q12 4 51.5 30.5t73.5 50.5l33 25q18 8 14 -6l-10 -20q-4 -5 -39.5 -31t-69.5 -49l-33 -23q-33 -11 -49.5 -3t-21.5 23l-4 15q-13 67 67 227h-94q-14 0 -10 6q3 7 19.5 12t23.5 3q73 -4 78 10h2q61 115 164 262 q-29 -29 -43 -41q-200 -188 -504 -434q-87 -71 -195 -108.5t-225.5 -24t-204.5 89.5q-22 18 -45.5 57.5t-30.5 73.5zM1362 733q8 31 47 27q27 -3 27 -33q0 -15 -12.5 -27.5t-30.5 -11.5q-35 6 -31 45zM1384 727q-3 -17 11 -20q7 0 12.5 5t5.5 11q3 6 -0.5 11t-9.5 5 t-12.5 -4t-6.5 -8z" />
<glyph unicode="&#xc7;" horiz-adv-x="952" d="M-18 459q0 15 6 33q21 49 61.5 82t95.5 48t102.5 20t106.5 5q73 0 143.5 -12.5t152 -34t120.5 -29.5q144 93 281 93q65 0 109 -29.5t44 -69.5q0 -32 -35.5 -51.5t-107.5 -19.5q-88 0 -264 47q-116 -86 -198.5 -209.5t-82.5 -235.5q0 -60 32.5 -97.5t96.5 -37.5 q50 0 113 22t109.5 48.5t86.5 48.5t50 22q0 -20 -58.5 -59.5t-145.5 -72.5t-153 -33q-19 0 -36 2t-46.5 12.5t-50 28.5t-36 55.5t-15.5 89.5q0 63 27 130t70.5 123t90 100.5t92.5 74.5q-39 7 -114 27t-140.5 31.5t-134.5 11.5t-117.5 -4.5t-106 -26.5t-89.5 -62 q-7 -9 -10 -35t-9 -45.5t-20 -19.5q-6 0 -8 2q-12 6 -12 27zM387 -20q3 16 9.5 22t15.5 4q10 -3 10 -16q-7 -14 -10 -17q-3 -13 7.5 -31.5t26.5 -21.5q13 -3 22 2.5t11 14.5t-10.5 23t-9.5 30q2 9 8 12l33 -31q11 -19 8 -43q-5 -20 -19.5 -30.5t-33.5 -6.5q-34 6 -54 30.5 t-14 58.5zM823 559q160 -39 246 -39q109 0 109 43q0 34 -42 55t-100 21q-108 -11 -213 -80z" />
<glyph unicode="&#xc8;" horiz-adv-x="970" d="M12 389q0 15 6 33q61 123 169 190.5t237 67.5q165 0 412 -111q116 80 239 80q39 0 74 -20t35 -62q0 -49 -47 -73.5t-93 -24.5q-31 0 -64 10.5t-70 27.5t-54 23q-67 -67 -41 -124q18 2 57 2q50 0 50 -29q0 -14 -11 -22t-19 -9.5t-15 -1.5q-21 0 -44 11.5t-30 21.5 q-111 -19 -211 -107t-100 -176q0 -62 35.5 -92.5t76.5 -30.5q52 0 138.5 36.5t159.5 73t91 36.5q2 -9 -62 -50.5t-161 -81.5t-166 -40q-71 0 -118.5 40.5t-47.5 118.5q0 62 33.5 116t86 90t109.5 58.5t111 30.5q-20 28 -18 57t16 52t37 41q-236 104 -391 104 q-203 0 -336 -159q-13 -15 -18.5 -40t-5 -45t-7 -34.5t-26.5 -14.5q-2 1 -4 3q-13 3 -13 24zM627 -27q8 0 24 4q-16 -4 -24 -4zM840 383q5 -8 30.5 -11.5t28.5 3.5q3 6 -12 9q-31 5 -47 -1zM877 549q1 0 3 -1t3 -1q17 -6 49.5 -21.5t57 -23.5t48.5 -8q44 0 82.5 19t38.5 54 q0 56 -127 56q-86 -12 -155 -74zM1059 752q0 8 2 10q3 6 16 6q21 0 36.5 -11.5t24.5 -25.5t25 -29t35 -20q2 0 2 -2q-6 -2 -16 -2q-30 0 -77.5 21t-47.5 53z" />
<glyph unicode="&#xc9;" horiz-adv-x="970" d="M12 389q0 15 6 33q61 123 169 190.5t237 67.5q165 0 412 -111q116 80 239 80q39 0 74 -20t35 -62q0 -49 -47 -73.5t-93 -24.5q-31 0 -64 10.5t-70 27.5t-54 23q-67 -67 -41 -124q18 2 57 2q50 0 50 -29q0 -14 -11 -22t-19 -9.5t-15 -1.5q-21 0 -44 11.5t-30 21.5 q-111 -19 -211 -107t-100 -176q0 -62 35.5 -92.5t76.5 -30.5q52 0 138.5 36.5t159.5 73t91 36.5q2 -9 -62 -50.5t-161 -81.5t-166 -40q-71 0 -118.5 40.5t-47.5 118.5q0 62 33.5 116t86 90t109.5 58.5t111 30.5q-20 28 -18 57t16 52t37 41q-236 104 -391 104 q-203 0 -336 -159q-13 -15 -18.5 -40t-5 -45t-7 -34.5t-26.5 -14.5q-2 1 -4 3q-13 3 -13 24zM627 -27q8 0 24 4q-16 -4 -24 -4zM840 383q5 -8 30.5 -11.5t28.5 3.5q3 6 -12 9q-31 5 -47 -1zM877 549q1 0 3 -1t3 -1q17 -6 49.5 -21.5t57 -23.5t48.5 -8q44 0 82.5 19t38.5 54 q0 56 -127 56q-86 -12 -155 -74zM1059 680q0 2 2 2q19 5 35 20t25 29t24.5 25.5t36.5 11.5q18 0 18 -16q0 -32 -47.5 -53t-77.5 -21z" />
<glyph unicode="&#xca;" horiz-adv-x="970" d="M12 389q0 15 6 33q61 123 169 190.5t237 67.5q165 0 412 -111q116 80 239 80q39 0 74 -20t35 -62q0 -49 -47 -73.5t-93 -24.5q-31 0 -64 10.5t-70 27.5t-54 23q-67 -67 -41 -124q18 2 57 2q50 0 50 -29q0 -14 -11 -22t-19 -9.5t-15 -1.5q-21 0 -44 11.5t-30 21.5 q-111 -19 -211 -107t-100 -176q0 -62 35.5 -92.5t76.5 -30.5q52 0 138.5 36.5t159.5 73t91 36.5q2 -9 -62 -50.5t-161 -81.5t-166 -40q-71 0 -118.5 40.5t-47.5 118.5q0 62 33.5 116t86 90t109.5 58.5t111 30.5q-20 28 -18 57t16 52t37 41q-236 104 -391 104 q-203 0 -336 -159q-13 -15 -18.5 -40t-5 -45t-7 -34.5t-26.5 -14.5q-2 1 -4 3q-13 3 -13 24zM627 -27q8 0 24 4q-16 -4 -24 -4zM840 383q5 -8 30.5 -11.5t28.5 3.5q3 6 -12 9q-31 5 -47 -1zM877 549q1 0 3 -1t3 -1q17 -6 49.5 -21.5t57 -23.5t48.5 -8q44 0 82.5 19t38.5 54 q0 56 -127 56q-86 -12 -155 -74zM1022 717q0 1 51 28t66 33q6 4 14 4q15 0 25 -18q4 -8 12.5 -25.5t13 -25.5t15 -19t24.5 -18q-1 -1 -1 -3.5t-2 -3.5t-9 -1q-40 0 -92 63q-8 -2 -20.5 -6t-17.5 -6t-14.5 -4.5t-15.5 -3t-14.5 -1.5t-18.5 -1q-16 0 -16 8z" />
<glyph unicode="&#xcb;" horiz-adv-x="970" d="M12 389q0 15 6 33q61 123 169 190.5t237 67.5q165 0 412 -111q116 80 239 80q39 0 74 -20t35 -62q0 -49 -47 -73.5t-93 -24.5q-31 0 -64 10.5t-70 27.5t-54 23q-67 -67 -41 -124q18 2 57 2q50 0 50 -29q0 -14 -11 -22t-19 -9.5t-15 -1.5q-21 0 -44 11.5t-30 21.5 q-111 -19 -211 -107t-100 -176q0 -62 35.5 -92.5t76.5 -30.5q52 0 138.5 36.5t159.5 73t91 36.5q2 -9 -62 -50.5t-161 -81.5t-166 -40q-71 0 -118.5 40.5t-47.5 118.5q0 62 33.5 116t86 90t109.5 58.5t111 30.5q-20 28 -18 57t16 52t37 41q-236 104 -391 104 q-203 0 -336 -159q-13 -15 -18.5 -40t-5 -45t-7 -34.5t-26.5 -14.5q-2 1 -4 3q-13 3 -13 24zM627 -27q8 0 24 4q-16 -4 -24 -4zM840 383q5 -8 30.5 -11.5t28.5 3.5q3 6 -12 9q-31 5 -47 -1zM877 549q1 0 3 -1t3 -1q17 -6 49.5 -21.5t57 -23.5t48.5 -8q44 0 82.5 19t38.5 54 q0 56 -127 56q-86 -12 -155 -74zM1053 700q0 22 18 41t41 19t23 -15q0 -17 -23.5 -39t-42.5 -22q-16 0 -16 16zM1128 700q0 17 17.5 38.5t42.5 21.5q22 0 22 -15q0 -20 -22 -40.5t-43 -20.5q-17 0 -17 16z" />
<glyph unicode="&#xcc;" horiz-adv-x="739" d="M25 -6q0 14 18 14q20 0 34.5 -10.5t30.5 -29t29 -27.5q42 0 62 6q78 26 148.5 70t135 105t117 118t126.5 138t132 138q57 57 85 93q7 9 11 9q8 0 13.5 -11.5t5.5 -20.5q0 -8 -2 -17t-4 -13l-2 -5l-115 -145q-88 -120 -141.5 -219.5t-63.5 -138.5l-10 -40q-5 -20 -17 -20 q-18 0 -18 14q0 60 54.5 174t125.5 221q-23 -25 -71 -78.5t-75.5 -82.5t-72.5 -75.5t-81.5 -75.5t-82.5 -63t-94 -58.5t-100 -41.5q-35 -10 -74.5 -2t-69.5 29q-34 18 -34 45zM938 727q0 8 2 10q3 6 16 6q21 0 36.5 -11.5t24.5 -25.5t25 -29t35 -20q2 0 2 -2q-6 -2 -16 -2 q-30 0 -77.5 21t-47.5 53z" />
<glyph unicode="&#xcd;" horiz-adv-x="739" d="M25 -6q0 14 18 14q20 0 34.5 -10.5t30.5 -29t29 -27.5q42 0 62 6q78 26 148.5 70t135 105t117 118t126.5 138t132 138q57 57 85 93q7 9 11 9q8 0 13.5 -11.5t5.5 -20.5q0 -8 -2 -17t-4 -13l-2 -5l-115 -145q-88 -120 -141.5 -219.5t-63.5 -138.5l-10 -40q-5 -20 -17 -20 q-18 0 -18 14q0 60 54.5 174t125.5 221q-23 -25 -71 -78.5t-75.5 -82.5t-72.5 -75.5t-81.5 -75.5t-82.5 -63t-94 -58.5t-100 -41.5q-35 -10 -74.5 -2t-69.5 29q-34 18 -34 45zM940 662q0 2 2 2q19 5 35 20t25 29t24.5 25.5t36.5 11.5q18 0 18 -17q0 -32 -47.5 -53t-77.5 -21 z" />
<glyph unicode="&#xce;" horiz-adv-x="739" d="M25 -6q0 14 18 14q20 0 34.5 -10.5t30.5 -29t29 -27.5q42 0 62 6q78 26 148.5 70t135 105t117 118t126.5 138t132 138q57 57 85 93q7 9 11 9q8 0 13.5 -11.5t5.5 -20.5q0 -8 -2 -17t-4 -13l-2 -5l-115 -145q-88 -120 -141.5 -219.5t-63.5 -138.5l-10 -40q-5 -20 -17 -20 q-18 0 -18 14q0 60 54.5 174t125.5 221q-23 -25 -71 -78.5t-75.5 -82.5t-72.5 -75.5t-81.5 -75.5t-82.5 -63t-94 -58.5t-100 -41.5q-35 -10 -74.5 -2t-69.5 29q-34 18 -34 45zM879 672q0 1 51 28t65 33q7 4 15 4q14 0 24 -18q4 -7 13 -25.5t13.5 -26t15 -18.5t24.5 -18 q-1 -1 -1 -3.5t-2.5 -3.5t-9.5 -1q-40 0 -92 63q-8 -3 -20 -6.5t-17.5 -5.5t-14.5 -4.5t-15 -3t-14.5 -1.5t-18.5 -1q-16 0 -16 8z" />
<glyph unicode="&#xcf;" horiz-adv-x="739" d="M25 -6q0 14 18 14q20 0 34.5 -10.5t30.5 -29t29 -27.5q42 0 62 6q78 26 148.5 70t135 105t117 118t126.5 138t132 138q57 57 85 93q7 9 11 9q8 0 13.5 -11.5t5.5 -20.5q0 -8 -2 -17t-4 -13l-2 -5l-115 -145q-88 -120 -141.5 -219.5t-63.5 -138.5l-10 -40q-5 -20 -17 -20 q-18 0 -18 14q0 60 54.5 174t125.5 221q-23 -25 -71 -78.5t-75.5 -82.5t-72.5 -75.5t-81.5 -75.5t-82.5 -63t-94 -58.5t-100 -41.5q-35 -10 -74.5 -2t-69.5 29q-34 18 -34 45zM930 672q0 22 18 40.5t41 18.5t23 -14q0 -17 -23.5 -39.5t-42.5 -22.5q-16 0 -16 17zM1006 672 q0 17 17 38t42 21q22 0 22 -14q0 -20 -22.5 -41t-42.5 -21q-16 0 -16 17z" />
<glyph unicode="&#xd1;" horiz-adv-x="890" d="M-156 457q0 22 15 22q24 0 43 -37q4 -8 5.5 -33t16.5 -44q107 -64 217 -64q119 0 240.5 58.5t202.5 150.5q12 14 22.5 26.5t17.5 21.5t12.5 17t8.5 13t5.5 9.5t3.5 7t2 4t1.5 2.5t1.5 1h3q18 0 21.5 -26.5t-3.5 -38.5l-86 -148q-120 -192 -182 -352q6 9 30 41 q40 50 112.5 147.5t119 157t120.5 135t150 127.5q15 12 36.5 2.5t18.5 -28.5q6 6 11 12t6.5 8.5t3.5 4t6 1.5q15 0 17 -27.5t-3 -37.5l-129 -191q-186 -300 -186 -366q0 -23 14 -23q18 -1 89.5 47.5t76.5 61.5q4 2 10 2q5 0 5 -4q0 -11 -61 -61.5t-91 -63.5q-16 -8 -33 -8 q-16 0 -27 10t-14 20l-2 11q-6 52 21 129t79 164t90.5 144t85.5 123q8 10 11 15q2 22 -4 32t-23 -1q-69 -49 -141 -122.5t-117 -131t-120.5 -158t-110.5 -145.5q-59 -74 -76 -74q-18 0 -18 20q0 69 50.5 183.5t123.5 232.5q-84 -74 -188.5 -117t-209.5 -43q-108 0 -204.5 54 t-96.5 127zM750 715q0 7 12.5 13.5t30.5 6.5q17 0 49 -20.5t47 -20.5q17 0 29 6q4 0 4 -2q0 -11 -16 -26t-40 -15q-25 0 -39.5 8.5t-18 18.5t-13 18.5t-25.5 8.5q-20 0 -20 4z" />
<glyph unicode="&#xd2;" horiz-adv-x="993" d="M14 547q0 19 29 45t92 49t123 23q177 0 322 -123v2q50 49 113.5 81.5t123.5 32.5q66 0 98.5 -42t38.5 -128q2 -33 -3 -78.5t-23 -103t-46.5 -105.5t-80 -81t-117.5 -33q-69 0 -107 52.5t-38 123.5q0 113 84 207q-12 10 -35 33q-121 -143 -121 -287q0 -59 15 -108t54 -84 t97 -35q75 0 141.5 32.5t112.5 85.5t80.5 120t52 136t20.5 134q-2 41 -24.5 67t-22.5 49q0 31 19 31q49 0 43 -160q-4 -69 -24 -140.5t-57.5 -139.5t-87.5 -121.5t-118.5 -86t-144.5 -32.5q-104 0 -157.5 62.5t-53.5 154.5q0 173 151 342q-145 119 -303 119q-73 0 -139 -27 q-19 -10 -31.5 -25.5t-18 -27.5t-15.5 -21.5t-25 -9.5q-17 0 -17 17zM596 266q0 -37 8.5 -68.5t35 -56.5t67.5 -26q71 4 123.5 61t76 137.5t23.5 171.5q0 148 -111 148h4q-49 -4 -49 -8q-79 -17 -170 -105q6 -6 18 -17t17 -16q23 20 34 28.5t32 18t43 9.5q36 0 57.5 -24 t21.5 -56q0 -35 -24.5 -59.5t-59.5 -24.5q-12 0 -23.5 3.5t-22.5 12t-17 13.5t-17 17t-14 15q-53 -84 -53 -174zM664 461q54 -58 88 -58q16 0 33.5 16.5t17.5 43.5q0 22 -16 38.5t-39 16.5q-42 0 -84 -57zM827 727q0 8 2 10q3 6 17 6q21 0 36.5 -11.5t24.5 -25.5t25 -29 t35 -20q2 0 2 -2q-7 -2 -17 -2q-30 0 -77.5 21t-47.5 53z" />
<glyph unicode="&#xd3;" horiz-adv-x="993" d="M14 547q0 19 29 45t92 49t123 23q177 0 322 -123v2q50 49 113.5 81.5t123.5 32.5q66 0 98.5 -42t38.5 -128q2 -33 -3 -78.5t-23 -103t-46.5 -105.5t-80 -81t-117.5 -33q-69 0 -107 52.5t-38 123.5q0 113 84 207q-12 10 -35 33q-121 -143 -121 -287q0 -59 15 -108t54 -84 t97 -35q75 0 141.5 32.5t112.5 85.5t80.5 120t52 136t20.5 134q-2 41 -24.5 67t-22.5 49q0 31 19 31q49 0 43 -160q-4 -69 -24 -140.5t-57.5 -139.5t-87.5 -121.5t-118.5 -86t-144.5 -32.5q-104 0 -157.5 62.5t-53.5 154.5q0 173 151 342q-145 119 -303 119q-73 0 -139 -27 q-19 -10 -31.5 -25.5t-18 -27.5t-15.5 -21.5t-25 -9.5q-17 0 -17 17zM596 266q0 -37 8.5 -68.5t35 -56.5t67.5 -26q71 4 123.5 61t76 137.5t23.5 171.5q0 148 -111 148h4q-49 -4 -49 -8q-79 -17 -170 -105q6 -6 18 -17t17 -16q23 20 34 28.5t32 18t43 9.5q36 0 57.5 -24 t21.5 -56q0 -35 -24.5 -59.5t-59.5 -24.5q-12 0 -23.5 3.5t-22.5 12t-17 13.5t-17 17t-14 15q-53 -84 -53 -174zM664 461q54 -58 88 -58q16 0 33.5 16.5t17.5 43.5q0 22 -16 38.5t-39 16.5q-42 0 -84 -57zM825 680q0 2 2 2q19 5 35 20t25 29t24.5 25.5t36.5 11.5 q19 0 19 -16q0 -32 -47.5 -53t-77.5 -21z" />
<glyph unicode="&#xd4;" horiz-adv-x="993" d="M14 547q0 19 29 45t92 49t123 23q177 0 322 -123v2q50 49 113.5 81.5t123.5 32.5q66 0 98.5 -42t38.5 -128q2 -33 -3 -78.5t-23 -103t-46.5 -105.5t-80 -81t-117.5 -33q-69 0 -107 52.5t-38 123.5q0 113 84 207q-12 10 -35 33q-121 -143 -121 -287q0 -59 15 -108t54 -84 t97 -35q75 0 141.5 32.5t112.5 85.5t80.5 120t52 136t20.5 134q-2 41 -24.5 67t-22.5 49q0 31 19 31q49 0 43 -160q-4 -69 -24 -140.5t-57.5 -139.5t-87.5 -121.5t-118.5 -86t-144.5 -32.5q-104 0 -157.5 62.5t-53.5 154.5q0 173 151 342q-145 119 -303 119q-73 0 -139 -27 q-19 -10 -31.5 -25.5t-18 -27.5t-15.5 -21.5t-25 -9.5q-17 0 -17 17zM596 266q0 -37 8.5 -68.5t35 -56.5t67.5 -26q71 4 123.5 61t76 137.5t23.5 171.5q0 148 -111 148h4q-49 -4 -49 -8q-79 -17 -170 -105q6 -6 18 -17t17 -16q23 20 34 28.5t32 18t43 9.5q36 0 57.5 -24 t21.5 -56q0 -35 -24.5 -59.5t-59.5 -24.5q-12 0 -23.5 3.5t-22.5 12t-17 13.5t-17 17t-14 15q-53 -84 -53 -174zM664 461q54 -58 88 -58q16 0 33.5 16.5t17.5 43.5q0 22 -16 38.5t-39 16.5q-42 0 -84 -57zM786 696q0 1 51.5 28.5t65.5 33.5q7 4 15 4q13 0 24 -19 q4 -7 13 -25.5t13.5 -26t15 -18.5t24.5 -18q-1 -1 -1 -3.5t-2.5 -3.5t-9.5 -1q-40 0 -92 64q-10 -3 -23.5 -7.5t-20.5 -6.5t-16.5 -4.5t-19 -3.5t-20.5 -1q-17 0 -17 8z" />
<glyph unicode="&#xd5;" horiz-adv-x="993" d="M14 547q0 19 29 45t92 49t123 23q177 0 322 -123v2q50 49 113.5 81.5t123.5 32.5q66 0 98.5 -42t38.5 -128q2 -33 -3 -78.5t-23 -103t-46.5 -105.5t-80 -81t-117.5 -33q-69 0 -107 52.5t-38 123.5q0 113 84 207q-12 10 -35 33q-121 -143 -121 -287q0 -59 15 -108t54 -84 t97 -35q75 0 141.5 32.5t112.5 85.5t80.5 120t52 136t20.5 134q-2 41 -24.5 67t-22.5 49q0 31 19 31q49 0 43 -160q-4 -69 -24 -140.5t-57.5 -139.5t-87.5 -121.5t-118.5 -86t-144.5 -32.5q-104 0 -157.5 62.5t-53.5 154.5q0 173 151 342q-145 119 -303 119q-73 0 -139 -27 q-19 -10 -31.5 -25.5t-18 -27.5t-15.5 -21.5t-25 -9.5q-17 0 -17 17zM596 266q0 -37 8.5 -68.5t35 -56.5t67.5 -26q71 4 123.5 61t76 137.5t23.5 171.5q0 148 -111 148h4q-49 -4 -49 -8q-79 -17 -170 -105q6 -6 18 -17t17 -16q23 20 34 28.5t32 18t43 9.5q36 0 57.5 -24 t21.5 -56q0 -35 -24.5 -59.5t-59.5 -24.5q-12 0 -23.5 3.5t-22.5 12t-17 13.5t-17 17t-14 15q-53 -84 -53 -174zM664 461q54 -58 88 -58q16 0 33.5 16.5t17.5 43.5q0 22 -16 38.5t-39 16.5q-42 0 -84 -57zM817 719q0 7 12.5 13.5t30.5 6.5q17 0 49 -20.5t47 -20.5t29 7 q4 0 4 -3q0 -11 -15.5 -25.5t-39.5 -14.5q-25 0 -39.5 8.5t-18 18t-13 18t-25.5 8.5q-21 0 -21 4z" />
<glyph unicode="&#xd6;" horiz-adv-x="993" d="M14 547q0 19 29 45t92 49t123 23q177 0 322 -123v2q50 49 113.5 81.5t123.5 32.5q66 0 98.5 -42t38.5 -128q2 -33 -3 -78.5t-23 -103t-46.5 -105.5t-80 -81t-117.5 -33q-69 0 -107 52.5t-38 123.5q0 113 84 207q-12 10 -35 33q-121 -143 -121 -287q0 -59 15 -108t54 -84 t97 -35q75 0 141.5 32.5t112.5 85.5t80.5 120t52 136t20.5 134q-2 41 -24.5 67t-22.5 49q0 31 19 31q49 0 43 -160q-4 -69 -24 -140.5t-57.5 -139.5t-87.5 -121.5t-118.5 -86t-144.5 -32.5q-104 0 -157.5 62.5t-53.5 154.5q0 173 151 342q-145 119 -303 119q-73 0 -139 -27 q-19 -10 -31.5 -25.5t-18 -27.5t-15.5 -21.5t-25 -9.5q-17 0 -17 17zM596 266q0 -37 8.5 -68.5t35 -56.5t67.5 -26q71 4 123.5 61t76 137.5t23.5 171.5q0 148 -111 148h4q-49 -4 -49 -8q-79 -17 -170 -105q6 -6 18 -17t17 -16q23 20 34 28.5t32 18t43 9.5q36 0 57.5 -24 t21.5 -56q0 -35 -24.5 -59.5t-59.5 -24.5q-12 0 -23.5 3.5t-22.5 12t-17 13.5t-17 17t-14 15q-53 -84 -53 -174zM664 461q54 -58 88 -58q16 0 33.5 16.5t17.5 43.5q0 22 -16 38.5t-39 16.5q-42 0 -84 -57zM817 690q0 22 18.5 41t41.5 19q22 0 22 -15q0 -17 -23 -39t-42 -22 q-17 0 -17 16zM893 690q0 17 17 38.5t42 21.5q23 0 23 -15q0 -20 -22.5 -40.5t-43.5 -20.5q-16 0 -16 16z" />
<glyph unicode="&#xd7;" horiz-adv-x="1705" />
<glyph unicode="&#xd8;" horiz-adv-x="993" d="M14 547q0 19 29 45t92 49t123 23q177 0 322 -123v2q50 49 113.5 81.5t123.5 32.5q66 0 98.5 -42t38.5 -128q2 -33 -3 -78.5t-23 -103t-46.5 -105.5t-80 -81t-117.5 -33q-69 0 -107 52.5t-38 123.5q0 113 84 207q-12 10 -35 33q-121 -143 -121 -287q0 -59 15 -108t54 -84 t97 -35q75 0 141.5 32.5t112.5 85.5t80.5 120t52 136t20.5 134q-2 41 -24.5 67t-22.5 49q0 31 19 31q49 0 43 -160q-4 -69 -24 -140.5t-57.5 -139.5t-87.5 -121.5t-118.5 -86t-144.5 -32.5q-104 0 -157.5 62.5t-53.5 154.5q0 173 151 342q-145 119 -303 119q-73 0 -139 -27 q-19 -10 -31.5 -25.5t-18 -27.5t-15.5 -21.5t-25 -9.5q-17 0 -17 17zM514 -18l4 26l68 133q57 111 100 207.5t62.5 154.5t31.5 100.5t14 59.5l1 17q3 20 16 20q14 0 14 -14q0 -62 -28 -159t-68 -191.5t-80.5 -179.5t-69.5 -138t-32 -53q-6 -14 -15 -14t-13.5 11t-4.5 20z M596 266q0 -37 8.5 -68.5t35 -56.5t67.5 -26q71 4 123.5 61t76 137.5t23.5 171.5q0 148 -111 148h4q-49 -4 -49 -8q-79 -17 -170 -105q6 -6 18 -17t17 -16q23 20 34 28.5t32 18t43 9.5q36 0 57.5 -24t21.5 -56q0 -35 -24.5 -59.5t-59.5 -24.5q-12 0 -23.5 3.5t-22.5 12 t-17 13.5t-17 17t-14 15q-53 -84 -53 -174zM664 461q54 -58 88 -58q16 0 33.5 16.5t17.5 43.5q0 22 -16 38.5t-39 16.5q-42 0 -84 -57z" />
<glyph unicode="&#xd9;" horiz-adv-x="1155" d="M10 463q0 24 15 24q23 0 30.5 -17t15 -49t27.5 -54q44 -29 75 -41.5t71 -12.5q29 0 61.5 7t59 15.5t63.5 28t59 31.5t63 40t57 39.5t59.5 44t54.5 40.5q44 35 82.5 59.5t56.5 32.5t25 8q17 0 28 -9.5t13 -19.5l2 -9q2 -6 2 -21q0 -44 -26.5 -111.5t-75 -150t-84 -139 t-89 -133.5t-53.5 -78q-6 -9 -6 -15l4 -6h-2q107 0 215.5 80t192.5 189q12 16 20 24q34 67 81.5 141t78.5 115l31 41q7 14 18 14q9 0 15.5 -12t6.5 -22q0 -7 -2 -15t-4 -12l-2 -4l-73 -107q-187 -304 -187 -368q0 -21 15 -21q5 0 85.5 50.5t81.5 58.5q4 2 9 2q4 0 4 -4 q0 -12 -60.5 -61.5t-91.5 -63.5q-16 -8 -33 -8q-45 0 -45 55q0 67 29 129q-199 -225 -377 -225q-55 0 -55 51q0 7 2 13.5t4 9.5l2 3l129 191q77 126 129 224t65 133l13 36q0 29 -14 29q-4 0 -12 -4t-22.5 -13.5t-25 -16t-31.5 -21.5t-30 -21q-28 -20 -93 -68.5t-105.5 -75.5 t-98.5 -60.5t-112.5 -49.5t-108.5 -16q-89 0 -160.5 64t-71.5 112zM1016 727q0 8 2 10q3 6 16 6q21 0 36.5 -11.5t24.5 -25.5t25 -29t35 -20q2 0 2 -2q-6 -2 -16 -2q-30 0 -77.5 21t-47.5 53z" />
<glyph unicode="&#xda;" horiz-adv-x="1155" d="M10 463q0 24 15 24q23 0 30.5 -17t15 -49t27.5 -54q44 -29 75 -41.5t71 -12.5q29 0 61.5 7t59 15.5t63.5 28t59 31.5t63 40t57 39.5t59.5 44t54.5 40.5q44 35 82.5 59.5t56.5 32.5t25 8q17 0 28 -9.5t13 -19.5l2 -9q2 -6 2 -21q0 -44 -26.5 -111.5t-75 -150t-84 -139 t-89 -133.5t-53.5 -78q-6 -9 -6 -15l4 -6h-2q107 0 215.5 80t192.5 189q12 16 20 24q34 67 81.5 141t78.5 115l31 41q7 14 18 14q9 0 15.5 -12t6.5 -22q0 -7 -2 -15t-4 -12l-2 -4l-73 -107q-187 -304 -187 -368q0 -21 15 -21q5 0 85.5 50.5t81.5 58.5q4 2 9 2q4 0 4 -4 q0 -12 -60.5 -61.5t-91.5 -63.5q-16 -8 -33 -8q-45 0 -45 55q0 67 29 129q-199 -225 -377 -225q-55 0 -55 51q0 7 2 13.5t4 9.5l2 3l129 191q77 126 129 224t65 133l13 36q0 29 -14 29q-4 0 -12 -4t-22.5 -13.5t-25 -16t-31.5 -21.5t-30 -21q-28 -20 -93 -68.5t-105.5 -75.5 t-98.5 -60.5t-112.5 -49.5t-108.5 -16q-89 0 -160.5 64t-71.5 112zM1053 657q0 2 2 2q19 5 35 20t25 29t24.5 25.5t36.5 11.5q18 0 18 -16q0 -32 -47.5 -53t-77.5 -21z" />
<glyph unicode="&#xdb;" horiz-adv-x="1155" d="M10 463q0 24 15 24q23 0 30.5 -17t15 -49t27.5 -54q44 -29 75 -41.5t71 -12.5q29 0 61.5 7t59 15.5t63.5 28t59 31.5t63 40t57 39.5t59.5 44t54.5 40.5q44 35 82.5 59.5t56.5 32.5t25 8q17 0 28 -9.5t13 -19.5l2 -9q2 -6 2 -21q0 -44 -26.5 -111.5t-75 -150t-84 -139 t-89 -133.5t-53.5 -78q-6 -9 -6 -15l4 -6h-2q107 0 215.5 80t192.5 189q12 16 20 24q34 67 81.5 141t78.5 115l31 41q7 14 18 14q9 0 15.5 -12t6.5 -22q0 -7 -2 -15t-4 -12l-2 -4l-73 -107q-187 -304 -187 -368q0 -21 15 -21q5 0 85.5 50.5t81.5 58.5q4 2 9 2q4 0 4 -4 q0 -12 -60.5 -61.5t-91.5 -63.5q-16 -8 -33 -8q-45 0 -45 55q0 67 29 129q-199 -225 -377 -225q-55 0 -55 51q0 7 2 13.5t4 9.5l2 3l129 191q77 126 129 224t65 133l13 36q0 29 -14 29q-4 0 -12 -4t-22.5 -13.5t-25 -16t-31.5 -21.5t-30 -21q-28 -20 -93 -68.5t-105.5 -75.5 t-98.5 -60.5t-112.5 -49.5t-108.5 -16q-89 0 -160.5 64t-71.5 112zM1016 690q0 1 51.5 28.5t65.5 33.5q6 4 14 4q13 0 24 -19q4 -7 13 -25.5t13.5 -26t15 -18.5t24.5 -18q-1 -1 -1 -3.5t-2 -3.5t-9 -1q-40 0 -92 64q-9 -3 -23.5 -7.5t-21 -6.5t-16.5 -4.5t-19.5 -3.5 t-20.5 -1q-16 0 -16 8z" />
<glyph unicode="&#xdc;" horiz-adv-x="1155" d="M10 463q0 24 15 24q23 0 30.5 -17t15 -49t27.5 -54q44 -29 75 -41.5t71 -12.5q29 0 61.5 7t59 15.5t63.5 28t59 31.5t63 40t57 39.5t59.5 44t54.5 40.5q44 35 82.5 59.5t56.5 32.5t25 8q17 0 28 -9.5t13 -19.5l2 -9q2 -6 2 -21q0 -44 -26.5 -111.5t-75 -150t-84 -139 t-89 -133.5t-53.5 -78q-6 -9 -6 -15l4 -6h-2q107 0 215.5 80t192.5 189q12 16 20 24q34 67 81.5 141t78.5 115l31 41q7 14 18 14q9 0 15.5 -12t6.5 -22q0 -7 -2 -15t-4 -12l-2 -4l-73 -107q-187 -304 -187 -368q0 -21 15 -21q5 0 85.5 50.5t81.5 58.5q4 2 9 2q4 0 4 -4 q0 -12 -60.5 -61.5t-91.5 -63.5q-16 -8 -33 -8q-45 0 -45 55q0 67 29 129q-199 -225 -377 -225q-55 0 -55 51q0 7 2 13.5t4 9.5l2 3l129 191q77 126 129 224t65 133l13 36q0 29 -14 29q-4 0 -12 -4t-22.5 -13.5t-25 -16t-31.5 -21.5t-30 -21q-28 -20 -93 -68.5t-105.5 -75.5 t-98.5 -60.5t-112.5 -49.5t-108.5 -16q-89 0 -160.5 64t-71.5 112zM1053 678q0 22 18 40.5t41 18.5t23 -14q0 -17 -23.5 -39t-42.5 -22q-16 0 -16 16zM1128 678q0 17 17.5 38t42.5 21q22 0 22 -14q0 -20 -22 -40.5t-43 -20.5q-17 0 -17 16z" />
<glyph unicode="&#xdd;" horiz-adv-x="1067" d="M16 465q0 22 17 22q23 0 32.5 -20.5t17.5 -52t23 -47.5q23 -25 63 -39.5t83 -14.5q29 0 61.5 7t59 15.5t63.5 28t59 31.5t63 40t57 39.5t59.5 44t54.5 40.5q43 35 80.5 59t56 32.5t25.5 8.5q17 0 28.5 -9.5t14.5 -19.5l2 -9q0 -3 1 -10t1 -11q0 -57 -52 -163t-115 -200.5 t-115 -174.5t-52 -91l2 -4q107 0 217 80.5t191 188.5q33 45 61.5 102t43 91t39 58.5t59.5 24.5q10 0 10 -12q0 -9 -6 -21q-41 -55 -132 -225.5t-106 -194.5q-54 -92 -84 -129q20 -3 58.5 -9.5t69.5 -10.5t58 -4q44 0 70.5 17t35 37t21 37t31.5 17q14 0 14 -16q0 -31 -54 -74 t-120 -43q-41 0 -116 13t-86 14q-107 -128 -224 -121q-67 4 -67 57q0 28 24 48.5t60.5 29.5t65.5 13t51 4q9 0 27.5 -1t27.5 -1q24 31 46.5 65.5t38 62t17.5 31.5q26 48 35 64q-169 -191 -360 -217q-28 0 -47 17t-19 36q0 6 2 12t4 9l2 3l129 191q78 126 130.5 224t65.5 133 l13 36q0 29 -16 29q-16 -3 -121 -76q-33 -22 -117 -84t-132.5 -94t-124 -62t-142.5 -30q-50 0 -96 21.5t-75 51.5t-46 59t-17 46zM614 -160q0 -13 15.5 -20.5t36.5 -7.5q72 0 159 100q-6 0 -17.5 1t-16.5 1q-9 0 -30.5 -2.5t-58 -9t-62.5 -23t-26 -39.5zM1044 653q0 2 3 2 q19 5 35 20t24.5 29t24 25.5t36.5 11.5q19 0 19 -16q0 -32 -47.5 -53t-77.5 -21z" />
<glyph unicode="&#xe0;" horiz-adv-x="372" d="M-31 55q0 32 18.5 73t36.5 66l19 25q51 63 95 101t62 44l19 7q32 14 55.5 -7t16.5 -63q15 24 23.5 35.5t28.5 26t42 14.5q14 0 14 -12q0 -15 -6 -21q-182 -246 -182 -303q0 -18 16 -18q20 0 87 47t73 47q4 0 4 -4t-3.5 -10t-7.5 -11l-3 -4q-33 -29 -61.5 -48.5 t-44.5 -27.5t-27.5 -12t-15.5 -4h-5q-19 0 -30.5 11t-12.5 23l-2 11q0 35 12 72v-2q-20 -19 -53 -43.5t-57 -39.5l-23 -14q-23 -14 -47 -14q-41 0 -41 55zM8 45q0 -12 6 -14q13 -4 64 28l7 5q7 5 16 11t21.5 16t25.5 20.5t28 24t27.5 27t24.5 28.5t21 29.5t14 30.5t5 30 q0 47 -22 47q-7 0 -17.5 -5.5t-23.5 -16.5t-25 -21.5t-27 -26t-24 -25t-21 -23t-14 -15.5q-10 -10 -24 -27t-38 -57t-24 -66zM246 502q0 8 2 10q3 6 16 6q21 0 36.5 -11.5t24.5 -25.5t25 -29t35 -20q2 0 2 -2q-6 -2 -16 -2q-30 0 -77.5 21t-47.5 53z" />
<glyph unicode="&#xe1;" horiz-adv-x="372" d="M-31 55q0 32 18.5 73t36.5 66l19 25q51 63 95 101t62 44l19 7q32 14 55.5 -7t16.5 -63q15 24 23.5 35.5t28.5 26t42 14.5q14 0 14 -12q0 -15 -6 -21q-182 -246 -182 -303q0 -18 16 -18q20 0 87 47t73 47q4 0 4 -4t-3.5 -10t-7.5 -11l-3 -4q-33 -29 -61.5 -48.5 t-44.5 -27.5t-27.5 -12t-15.5 -4h-5q-19 0 -30.5 11t-12.5 23l-2 11q0 35 12 72v-2q-20 -19 -53 -43.5t-57 -39.5l-23 -14q-23 -14 -47 -14q-41 0 -41 55zM8 45q0 -12 6 -14q13 -4 64 28l7 5q7 5 16 11t21.5 16t25.5 20.5t28 24t27.5 27t24.5 28.5t21 29.5t14 30.5t5 30 q0 47 -22 47q-7 0 -17.5 -5.5t-23.5 -16.5t-25 -21.5t-27 -26t-24 -25t-21 -23t-14 -15.5q-10 -10 -24 -27t-38 -57t-24 -66zM246 430q0 2 2 2q19 5 35 20t25 29t24.5 25.5t36.5 11.5q18 0 18 -16q0 -32 -47.5 -53t-77.5 -21z" />
<glyph unicode="&#xe2;" horiz-adv-x="372" d="M-31 55q0 32 18.5 73t36.5 66l19 25q51 63 95 101t62 44l19 7q32 14 55.5 -7t16.5 -63q15 24 23.5 35.5t28.5 26t42 14.5q14 0 14 -12q0 -15 -6 -21q-182 -246 -182 -303q0 -18 16 -18q20 0 87 47t73 47q4 0 4 -4t-3.5 -10t-7.5 -11l-3 -4q-33 -29 -61.5 -48.5 t-44.5 -27.5t-27.5 -12t-15.5 -4h-5q-19 0 -30.5 11t-12.5 23l-2 11q0 35 12 72v-2q-20 -19 -53 -43.5t-57 -39.5l-23 -14q-23 -14 -47 -14q-41 0 -41 55zM8 45q0 -12 6 -14q13 -4 64 28l7 5q7 5 16 11t21.5 16t25.5 20.5t28 24t27.5 27t24.5 28.5t21 29.5t14 30.5t5 30 q0 47 -22 47q-7 0 -17.5 -5.5t-23.5 -16.5t-25 -21.5t-27 -26t-24 -25t-21 -23t-14 -15.5q-10 -10 -24 -27t-38 -57t-24 -66zM207 455q0 1 51 27.5t66 33.5q6 4 14 4q14 0 24 -18q4 -7 13 -25.5t13.5 -26t15 -18.5t24.5 -18q-1 -1 -1 -3.5t-2 -3.5t-9 -1q-40 0 -92 63 q-9 -3 -23.5 -7.5t-21 -6.5t-16.5 -4.5t-19.5 -3.5t-20.5 -1q-16 0 -16 9z" />
<glyph unicode="&#xe3;" horiz-adv-x="372" d="M-31 55q0 32 18.5 73t36.5 66l19 25q51 63 95 101t62 44l19 7q32 14 55.5 -7t16.5 -63q15 24 23.5 35.5t28.5 26t42 14.5q14 0 14 -12q0 -15 -6 -21q-182 -246 -182 -303q0 -18 16 -18q20 0 87 47t73 47q4 0 4 -4t-3.5 -10t-7.5 -11l-3 -4q-33 -29 -61.5 -48.5 t-44.5 -27.5t-27.5 -12t-15.5 -4h-5q-19 0 -30.5 11t-12.5 23l-2 11q0 35 12 72v-2q-20 -19 -53 -43.5t-57 -39.5l-23 -14q-23 -14 -47 -14q-41 0 -41 55zM8 45q0 -12 6 -14q13 -4 64 28l7 5q7 5 16 11t21.5 16t25.5 20.5t28 24t27.5 27t24.5 28.5t21 29.5t14 30.5t5 30 q0 47 -22 47q-7 0 -17.5 -5.5t-23.5 -16.5t-25 -21.5t-27 -26t-24 -25t-21 -23t-14 -15.5q-10 -10 -24 -27t-38 -57t-24 -66zM244 483q0 7 13 14t30 7t49 -20.5t47 -20.5q17 0 29 6q4 0 4 -2q0 -11 -16 -26t-40 -15q-25 0 -39.5 8.5t-18 18t-13 18t-25.5 8.5q-20 0 -20 4z " />
<glyph unicode="&#xe4;" horiz-adv-x="372" d="M-31 55q0 32 18.5 73t36.5 66l19 25q51 63 95 101t62 44l19 7q32 14 55.5 -7t16.5 -63q15 24 23.5 35.5t28.5 26t42 14.5q14 0 14 -12q0 -15 -6 -21q-182 -246 -182 -303q0 -18 16 -18q20 0 87 47t73 47q4 0 4 -4t-3.5 -10t-7.5 -11l-3 -4q-33 -29 -61.5 -48.5 t-44.5 -27.5t-27.5 -12t-15.5 -4h-5q-19 0 -30.5 11t-12.5 23l-2 11q0 35 12 72v-2q-20 -19 -53 -43.5t-57 -39.5l-23 -14q-23 -14 -47 -14q-41 0 -41 55zM8 45q0 -12 6 -14q13 -4 64 28l7 5q7 5 16 11t21.5 16t25.5 20.5t28 24t27.5 27t24.5 28.5t21 29.5t14 30.5t5 30 q0 47 -22 47q-7 0 -17.5 -5.5t-23.5 -16.5t-25 -21.5t-27 -26t-24 -25t-21 -23t-14 -15.5q-10 -10 -24 -27t-38 -57t-24 -66zM266 440q0 22 18.5 41t41.5 19q22 0 22 -15q0 -17 -23 -39t-42 -22q-17 0 -17 16zM342 440q0 17 17 38.5t42 21.5q23 0 23 -15q0 -20 -22.5 -40.5 t-43.5 -20.5q-16 0 -16 16z" />
<glyph unicode="&#xe5;" horiz-adv-x="372" d="M-31 55q0 32 18.5 73t36.5 66l19 25q51 63 95 101t62 44l19 7q32 14 55.5 -7t16.5 -63q15 24 23.5 35.5t28.5 26t42 14.5q14 0 14 -12q0 -15 -6 -21q-182 -246 -182 -303q0 -18 16 -18q20 0 87 47t73 47q4 0 4 -4t-3.5 -10t-7.5 -11l-3 -4q-33 -29 -61.5 -48.5 t-44.5 -27.5t-27.5 -12t-15.5 -4h-5q-19 0 -30.5 11t-12.5 23l-2 11q0 35 12 72v-2q-20 -19 -53 -43.5t-57 -39.5l-23 -14q-23 -14 -47 -14q-41 0 -41 55zM8 45q0 -12 6 -14q13 -4 64 28l7 5q7 5 16 11t21.5 16t25.5 20.5t28 24t27.5 27t24.5 28.5t21 29.5t14 30.5t5 30 q0 47 -22 47q-7 0 -17.5 -5.5t-23.5 -16.5t-25 -21.5t-27 -26t-24 -25t-21 -23t-14 -15.5q-10 -10 -24 -27t-38 -57t-24 -66zM305 463q8 30 47 26q27 -3 27 -32q0 -15 -12.5 -27.5t-30.5 -11.5q-35 6 -31 45zM328 457q-4 -18 10 -21q7 0 12.5 5.5t5.5 11.5q3 6 -0.5 11 t-9.5 5t-12 -4t-6 -8z" />
<glyph unicode="&#xe7;" horiz-adv-x="245" d="M-90 -2q0 31 18 31q5 0 9 -4.5t4 -10.5t-7 -16q0 -14 15 -30.5t31 -16.5q28 0 28 22q0 9 -15.5 21.5t-15.5 28.5q0 9 7 12l36 -23q17 -21 17 -41t-12 -33.5t-33 -13.5q-34 0 -58 20t-24 54zM-27 70q0 65 82.5 171.5t143.5 127.5q15 6 24 6q29 0 41 -25.5t4 -68.5 q-6 -34 -21 -52.5t-27 -20.5l-11 -1l2 2l-2 -2q-6 1 -6 24q0 5 19.5 36t19.5 52q-21 0 -45 -16q-45 -29 -116 -117t-71 -135q0 -26 35 -26q53 0 118 41.5t106.5 85t58.5 71.5q2 0 4 -4q0 -31 -51 -84t-120 -95t-114 -44q-41 -1 -57.5 19t-16.5 55z" />
<glyph unicode="&#xe8;" horiz-adv-x="266" d="M-18 39q-12 44 19 115.5t82 133t95 81.5q23 14 49.5 9t36.5 -32q7 -20 7.5 -39.5t-2 -35t-14 -32t-20 -28t-28.5 -26t-30 -22t-34.5 -20.5t-33 -17t-34 -16.5t-28.5 -13.5q-4 -1 -11 -3t-11 -3q-13 -36 -7 -59q7 -13 33 -9t56 16t51 25q39 25 56 39t48 45q10 14 24.5 27 t20.5 10q4 -3 -4.5 -20.5t-19.5 -32.5q-45 -52 -113 -92q-162 -90 -188 0zM39 123q229 95 201 205q-8 16 -50 -17q-90 -63 -151 -188zM145 502q0 8 2 10q3 6 17 6q21 0 36.5 -11.5t24.5 -25.5t25 -29t35 -20q2 0 2 -2q-7 -2 -17 -2q-30 0 -77.5 21t-47.5 53z" />
<glyph unicode="&#xe9;" horiz-adv-x="266" d="M-18 39q-12 44 19 115.5t82 133t95 81.5q23 14 49.5 9t36.5 -32q7 -20 7.5 -39.5t-2 -35t-14 -32t-20 -28t-28.5 -26t-30 -22t-34.5 -20.5t-33 -17t-34 -16.5t-28.5 -13.5q-4 -1 -11 -3t-11 -3q-13 -36 -7 -59q7 -13 33 -9t56 16t51 25q39 25 56 39t48 45q10 14 24.5 27 t20.5 10q4 -3 -4.5 -20.5t-19.5 -32.5q-45 -52 -113 -92q-162 -90 -188 0zM39 123q229 95 201 205q-8 16 -50 -17q-90 -63 -151 -188zM145 430q0 2 2 2q19 5 35 20t25 29t24.5 25.5t36.5 11.5q19 0 19 -16q0 -32 -47.5 -53t-77.5 -21z" />
<glyph unicode="&#xea;" horiz-adv-x="266" d="M-18 39q-12 44 19 115.5t82 133t95 81.5q23 14 49.5 9t36.5 -32q7 -20 7.5 -39.5t-2 -35t-14 -32t-20 -28t-28.5 -26t-30 -22t-34.5 -20.5t-33 -17t-34 -16.5t-28.5 -13.5q-4 -1 -11 -3t-11 -3q-13 -36 -7 -59q7 -13 33 -9t56 16t51 25q39 25 56 39t48 45q10 14 24.5 27 t20.5 10q4 -3 -4.5 -20.5t-19.5 -32.5q-45 -52 -113 -92q-162 -90 -188 0zM39 123q229 95 201 205q-8 16 -50 -17q-90 -63 -151 -188zM106 455q0 1 51 27.5t66 33.5q7 4 15 4q14 0 24 -18q4 -7 13 -25.5t13.5 -26t15 -18.5t24.5 -18q-1 -1 -1 -3.5t-2.5 -3.5t-9.5 -1 q-40 0 -92 63q-10 -3 -23.5 -7.5t-20.5 -6.5t-16.5 -4.5t-19 -3.5t-20.5 -1q-17 0 -17 9z" />
<glyph unicode="&#xeb;" horiz-adv-x="266" d="M-18 39q-12 44 19 115.5t82 133t95 81.5q23 14 49.5 9t36.5 -32q7 -20 7.5 -39.5t-2 -35t-14 -32t-20 -28t-28.5 -26t-30 -22t-34.5 -20.5t-33 -17t-34 -16.5t-28.5 -13.5q-4 -1 -11 -3t-11 -3q-13 -36 -7 -59q7 -13 33 -9t56 16t51 25q39 25 56 39t48 45q10 14 24.5 27 t20.5 10q4 -3 -4.5 -20.5t-19.5 -32.5q-45 -52 -113 -92q-162 -90 -188 0zM39 123q229 95 201 205q-8 16 -50 -17q-90 -63 -151 -188zM141 440q0 22 18.5 41t41.5 19q22 0 22 -15q0 -17 -23 -39t-42 -22q-17 0 -17 16zM217 440q0 17 17 38.5t42 21.5q23 0 23 -15 q0 -20 -22.5 -40.5t-43.5 -20.5q-16 0 -16 16z" />
<glyph unicode="&#xec;" horiz-adv-x="174" d="M-23 41q0 98 142 303q10 12 29.5 22.5t35.5 10.5q15 0 15 -12t-9 -21q-73 -100 -117.5 -173t-52.5 -95l-8 -23q-2 -6 -2 -14q0 -16 17 -16q11 0 79 44t68 48q4 2 10 2q4 0 4 -4t-3.5 -10t-6.5 -11l-4 -4q-17 -17 -39.5 -33t-41.5 -26t-36 -18t-26 -11.5t-8 -3.5 q-19 0 -30.5 11t-13.5 23zM125 502q0 8 2 10q3 6 16 6q21 0 36.5 -11.5t24.5 -25.5t25 -29t35 -20q2 0 2 -2q-6 -2 -16 -2q-30 0 -77.5 21t-47.5 53z" />
<glyph unicode="&#xed;" horiz-adv-x="174" d="M-23 41q0 98 142 303q10 12 29.5 22.5t35.5 10.5q15 0 15 -12t-9 -21q-73 -100 -117.5 -173t-52.5 -95l-8 -23q-2 -6 -2 -14q0 -16 17 -16q11 0 79 44t68 48q4 2 10 2q4 0 4 -4t-3.5 -10t-6.5 -11l-4 -4q-17 -17 -39.5 -33t-41.5 -26t-36 -18t-26 -11.5t-8 -3.5 q-19 0 -30.5 11t-13.5 23zM117 430q0 2 2 2q19 5 35 20t25 29t24.5 25.5t36.5 11.5q18 0 18 -16q0 -32 -47.5 -53t-77.5 -21z" />
<glyph unicode="&#xee;" horiz-adv-x="174" d="M-23 41q0 98 142 303q10 12 29.5 22.5t35.5 10.5q15 0 15 -12t-9 -21q-73 -100 -117.5 -173t-52.5 -95l-8 -23q-2 -6 -2 -14q0 -16 17 -16q11 0 79 44t68 48q4 2 10 2q4 0 4 -4t-3.5 -10t-6.5 -11l-4 -4q-17 -17 -39.5 -33t-41.5 -26t-36 -18t-26 -11.5t-8 -3.5 q-19 0 -30.5 11t-13.5 23zM80 455q0 1 51 27.5t66 33.5q6 4 14 4q15 0 25 -18q4 -8 12.5 -25.5t13 -25.5t15 -19t24.5 -18q-1 -1 -1 -3.5t-2 -3.5t-9 -1q-40 0 -92 63q-9 -3 -23.5 -7.5t-21 -6.5t-16.5 -4.5t-19.5 -3.5t-20.5 -1q-16 0 -16 9z" />
<glyph unicode="&#xef;" horiz-adv-x="174" d="M-23 41q0 98 142 303q10 12 29.5 22.5t35.5 10.5q15 0 15 -12t-9 -21q-73 -100 -117.5 -173t-52.5 -95l-8 -23q-2 -6 -2 -14q0 -16 17 -16q11 0 79 44t68 48q4 2 10 2q4 0 4 -4t-3.5 -10t-6.5 -11l-4 -4q-17 -17 -39.5 -33t-41.5 -26t-36 -18t-26 -11.5t-8 -3.5 q-19 0 -30.5 11t-13.5 23zM133 440q0 22 18.5 41t41.5 19q22 0 22 -15q0 -17 -23 -39t-42 -22q-17 0 -17 16zM209 440q0 17 17 38.5t42 21.5q23 0 23 -15q0 -20 -22.5 -40.5t-43.5 -20.5q-16 0 -16 16z" />
<glyph unicode="&#xf1;" horiz-adv-x="382" d="M-45 27q0 26 10 51q118 299 211 299q10 0 10 -12t-14.5 -35t-42 -59t-33.5 -44q95 101 203 146q82 19 82 -39q0 -17 -4 -21q-158 -216 -158 -260q0 -13 3 -20.5t6 -8.5t8 -1q8 0 44.5 22.5t69.5 45.5t33 24q4 2 10 2q4 0 4 -4t-3.5 -10t-7.5 -11l-3 -4q-118 -92 -152 -92 q-19 0 -33 15t-14 44q0 47 29 105t92 153q23 31 19 37q-7 0 -19 -4q-84 -32 -158.5 -104.5t-130.5 -163.5q-11 -17 -21.5 -39.5t-16.5 -30.5t-13 -8q-10 0 -10 27zM188 483q0 7 13 14t30 7t49.5 -20.5t47.5 -20.5q16 0 28 6q4 0 4 -2q0 -11 -15.5 -26t-39.5 -15 q-25 0 -39.5 8.5t-18 18t-13 18t-25.5 8.5q-21 0 -21 4z" />
<glyph unicode="&#xf2;" d="M-31 45q-3 72 45 154.5t115 136t119 53.5q55 0 55 -70q0 -60 -43 -129q44 3 79.5 27.5t53.5 61.5q3 10 13 10q14 0 14 -23q-22 -46 -68 -75t-102 -29q-3 0 -5.5 -1t-4.5 -2t-4 -4t-3.5 -4.5t-4 -5.5t-3.5 -6q-4 -6 -13 -18t-31.5 -35.5t-46.5 -42.5t-56 -34t-62 -15 q-45 0 -47 51zM18 59q0 -15 4.5 -22.5t6.5 -7.5h6q70 2 176 139q-39 9 -64.5 37t-25.5 67q0 15 2 21q-42 -45 -73.5 -109.5t-31.5 -124.5zM147 272q0 -26 20.5 -47.5t57.5 -31.5q33 65 33 104q0 27 -12 38t-27 11q-36 0 -54 -27t-18 -47zM201 502q0 8 2 10q3 6 16 6 q21 0 36.5 -11.5t24.5 -25.5t25 -29t35 -20q2 0 2 -2q-6 -2 -16 -2q-30 0 -77.5 21t-47.5 53z" />
<glyph unicode="&#xf3;" d="M-31 45q-3 72 45 154.5t115 136t119 53.5q55 0 55 -70q0 -60 -43 -129q44 3 79.5 27.5t53.5 61.5q3 10 13 10q14 0 14 -23q-22 -46 -68 -75t-102 -29q-3 0 -5.5 -1t-4.5 -2t-4 -4t-3.5 -4.5t-4 -5.5t-3.5 -6q-4 -6 -13 -18t-31.5 -35.5t-46.5 -42.5t-56 -34t-62 -15 q-45 0 -47 51zM18 59q0 -15 4.5 -22.5t6.5 -7.5h6q70 2 176 139q-39 9 -64.5 37t-25.5 67q0 15 2 21q-42 -45 -73.5 -109.5t-31.5 -124.5zM147 272q0 -26 20.5 -47.5t57.5 -31.5q33 65 33 104q0 27 -12 38t-27 11q-36 0 -54 -27t-18 -47zM197 430q0 2 2 2q19 5 35 20 t24.5 29t24 25.5t36.5 11.5q19 0 19 -16q0 -32 -47.5 -53t-77.5 -21z" />
<glyph unicode="&#xf4;" d="M-31 45q-3 72 45 154.5t115 136t119 53.5q55 0 55 -70q0 -60 -43 -129q44 3 79.5 27.5t53.5 61.5q3 10 13 10q14 0 14 -23q-22 -46 -68 -75t-102 -29q-3 0 -5.5 -1t-4.5 -2t-4 -4t-3.5 -4.5t-4 -5.5t-3.5 -6q-4 -6 -13 -18t-31.5 -35.5t-46.5 -42.5t-56 -34t-62 -15 q-45 0 -47 51zM18 59q0 -15 4.5 -22.5t6.5 -7.5h6q70 2 176 139q-39 9 -64.5 37t-25.5 67q0 15 2 21q-42 -45 -73.5 -109.5t-31.5 -124.5zM147 272q0 -26 20.5 -47.5t57.5 -31.5q33 65 33 104q0 27 -12 38t-27 11q-36 0 -54 -27t-18 -47zM176 455q0 1 51 27.5t66 33.5 q6 4 14 4q15 0 25 -18q4 -8 12.5 -25.5t13 -25.5t15 -19t24.5 -18q-1 -1 -1 -3.5t-2 -3.5t-9 -1q-40 0 -92 63q-10 -3 -23.5 -7.5t-20.5 -6.5t-16.5 -4.5t-19 -3.5t-20.5 -1q-17 0 -17 9z" />
<glyph unicode="&#xf5;" d="M-31 45q-3 72 45 154.5t115 136t119 53.5q55 0 55 -70q0 -60 -43 -129q44 3 79.5 27.5t53.5 61.5q3 10 13 10q14 0 14 -23q-22 -46 -68 -75t-102 -29q-3 0 -5.5 -1t-4.5 -2t-4 -4t-3.5 -4.5t-4 -5.5t-3.5 -6q-4 -6 -13 -18t-31.5 -35.5t-46.5 -42.5t-56 -34t-62 -15 q-45 0 -47 51zM18 59q0 -15 4.5 -22.5t6.5 -7.5h6q70 2 176 139q-39 9 -64.5 37t-25.5 67q0 15 2 21q-42 -45 -73.5 -109.5t-31.5 -124.5zM147 272q0 -26 20.5 -47.5t57.5 -31.5q33 65 33 104q0 27 -12 38t-27 11q-36 0 -54 -27t-18 -47zM197 483q0 7 13 14t30 7t49 -20.5 t47 -20.5q17 0 29 6q4 0 4 -2q0 -11 -16 -26t-40 -15q-25 0 -39.5 8.5t-18 18t-13 18t-25.5 8.5q-20 0 -20 4z" />
<glyph unicode="&#xf6;" d="M-31 45q-3 72 45 154.5t115 136t119 53.5q55 0 55 -70q0 -60 -43 -129q44 3 79.5 27.5t53.5 61.5q3 10 13 10q14 0 14 -23q-22 -46 -68 -75t-102 -29q-3 0 -5.5 -1t-4.5 -2t-4 -4t-3.5 -4.5t-4 -5.5t-3.5 -6q-4 -6 -13 -18t-31.5 -35.5t-46.5 -42.5t-56 -34t-62 -15 q-45 0 -47 51zM18 59q0 -15 4.5 -22.5t6.5 -7.5h6q70 2 176 139q-39 9 -64.5 37t-25.5 67q0 15 2 21q-42 -45 -73.5 -109.5t-31.5 -124.5zM147 272q0 -26 20.5 -47.5t57.5 -31.5q33 65 33 104q0 27 -12 38t-27 11q-36 0 -54 -27t-18 -47zM217 440q0 22 18 41t41 19t23 -15 q0 -17 -23.5 -39t-42.5 -22q-16 0 -16 16zM293 440q0 17 17 38.5t42 21.5q23 0 23 -15q0 -20 -22.5 -40.5t-43.5 -20.5q-16 0 -16 16z" />
<glyph unicode="&#xf7;" horiz-adv-x="428" d="M53 299q0 16 35 16h285q26 0 26 -16q0 -14 -26 -14h-285q-35 0 -35 14zM186 205q-2 14 4 28.5t17 14.5t18.5 -7.5t7.5 -17.5q0 -11 -17 -31q-24 -29 -30 13zM246 369q-2 16 3 30.5t17 14.5q11 0 19 -7.5t8 -17.5q0 -11 -17 -31q-24 -29 -30 11z" />
<glyph unicode="&#xf8;" d="M-43 -33l8 17l68 82q91 108 149.5 192.5t71.5 114.5l12 30q3 13 15 13q7 -1 7.5 -3.5t0.5 -11.5q-9 -42 -43.5 -104t-78 -120.5t-86 -110.5t-71.5 -84t-30 -31q-8 -11 -13 -6q-10 0 -10 22zM-31 45q-3 72 45 154.5t115 136t119 53.5q55 0 55 -70q0 -60 -43 -129 q44 3 79.5 27.5t53.5 61.5q3 10 13 10q14 0 14 -23q-22 -46 -68 -75t-102 -29q-3 0 -5.5 -1t-4.5 -2t-4 -4t-3.5 -4.5t-4 -5.5t-3.5 -6q-4 -6 -13 -18t-31.5 -35.5t-46.5 -42.5t-56 -34t-62 -15q-45 0 -47 51zM18 59q0 -15 4.5 -22.5t6.5 -7.5h6q70 2 176 139 q-39 9 -64.5 37t-25.5 67q0 15 2 21q-42 -45 -73.5 -109.5t-31.5 -124.5zM147 272q0 -26 20.5 -47.5t57.5 -31.5q33 65 33 104q0 27 -12 38t-27 11q-36 0 -54 -27t-18 -47z" />
<glyph unicode="&#xf9;" horiz-adv-x="362" d="M-23 41v12q0 19 18 70t46 108.5t67.5 101.5t75.5 44q15 0 15 -12t-9 -21q-73 -100 -117.5 -173t-52.5 -95l-8 -23q-2 -6 -2 -14q0 -16 17 -16q7 0 56.5 26t86.5 49q8 27 28 71t48 92t62 82t63 34q14 0 14 -12q0 -13 -8 -21q-180 -246 -180 -303q0 -5 1 -8t3 -5t3.5 -2.5 t5.5 -1.5l3 -1q14 -3 51 19.5t67.5 46t30.5 26.5q4 2 9 2q6 0 6 -4t-3.5 -10t-7.5 -11l-4 -4q-116 -92 -153 -92q-19 0 -30.5 11t-12.5 23l-2 11v27q-77 -47 -102.5 -59.5t-38.5 -12.5q-19 0 -30.5 11t-13.5 23zM209 502q0 8 2 10q3 6 16 6q21 0 36.5 -11.5t24.5 -25.5 t25 -29t35 -20q2 0 2 -2q-6 -2 -16 -2q-30 0 -77.5 21t-47.5 53z" />
<glyph unicode="&#xfa;" horiz-adv-x="362" d="M-23 41v12q0 19 18 70t46 108.5t67.5 101.5t75.5 44q15 0 15 -12t-9 -21q-73 -100 -117.5 -173t-52.5 -95l-8 -23q-2 -6 -2 -14q0 -16 17 -16q7 0 56.5 26t86.5 49q8 27 28 71t48 92t62 82t63 34q14 0 14 -12q0 -13 -8 -21q-180 -246 -180 -303q0 -5 1 -8t3 -5t3.5 -2.5 t5.5 -1.5l3 -1q14 -3 51 19.5t67.5 46t30.5 26.5q4 2 9 2q6 0 6 -4t-3.5 -10t-7.5 -11l-4 -4q-116 -92 -153 -92q-19 0 -30.5 11t-12.5 23l-2 11v27q-77 -47 -102.5 -59.5t-38.5 -12.5q-19 0 -30.5 11t-13.5 23zM197 430q0 2 2 2q19 5 35 20t24.5 29t24 25.5t36.5 11.5 q19 0 19 -16q0 -32 -47.5 -53t-77.5 -21z" />
<glyph unicode="&#xfb;" horiz-adv-x="362" d="M-23 41v12q0 19 18 70t46 108.5t67.5 101.5t75.5 44q15 0 15 -12t-9 -21q-73 -100 -117.5 -173t-52.5 -95l-8 -23q-2 -6 -2 -14q0 -16 17 -16q7 0 56.5 26t86.5 49q8 27 28 71t48 92t62 82t63 34q14 0 14 -12q0 -13 -8 -21q-180 -246 -180 -303q0 -5 1 -8t3 -5t3.5 -2.5 t5.5 -1.5l3 -1q14 -3 51 19.5t67.5 46t30.5 26.5q4 2 9 2q6 0 6 -4t-3.5 -10t-7.5 -11l-4 -4q-116 -92 -153 -92q-19 0 -30.5 11t-12.5 23l-2 11v27q-77 -47 -102.5 -59.5t-38.5 -12.5q-19 0 -30.5 11t-13.5 23zM170 455q0 1 51 27.5t66 33.5q6 4 14 4q15 0 25 -18 q4 -8 12.5 -25.5t13 -25.5t15 -19t24.5 -18q-1 -1 -1 -3.5t-2 -3.5t-9 -1q-40 0 -92 63q-9 -3 -23.5 -7.5t-21 -6.5t-16.5 -4.5t-19.5 -3.5t-20.5 -1q-16 0 -16 9z" />
<glyph unicode="&#xfc;" horiz-adv-x="362" d="M-23 41v12q0 19 18 70t46 108.5t67.5 101.5t75.5 44q15 0 15 -12t-9 -21q-73 -100 -117.5 -173t-52.5 -95l-8 -23q-2 -6 -2 -14q0 -16 17 -16q7 0 56.5 26t86.5 49q8 27 28 71t48 92t62 82t63 34q14 0 14 -12q0 -13 -8 -21q-180 -246 -180 -303q0 -5 1 -8t3 -5t3.5 -2.5 t5.5 -1.5l3 -1q14 -3 51 19.5t67.5 46t30.5 26.5q4 2 9 2q6 0 6 -4t-3.5 -10t-7.5 -11l-4 -4q-116 -92 -153 -92q-19 0 -30.5 11t-12.5 23l-2 11v27q-77 -47 -102.5 -59.5t-38.5 -12.5q-19 0 -30.5 11t-13.5 23zM217 440q0 22 18 41t41 19t23 -15q0 -17 -23.5 -39t-42.5 -22 q-16 0 -16 16zM293 440q0 17 17 38.5t42 21.5q23 0 23 -15q0 -20 -22.5 -40.5t-43.5 -20.5q-16 0 -16 16z" />
<glyph unicode="&#xfd;" horiz-adv-x="337" d="M-240 -158q0 35 20 60.5t53 37t63.5 16.5t62.5 5q70 0 152 -16q40 51 79 129q-124 -78 -153 -78q-19 0 -30.5 11t-12.5 23l-2 11v12q0 19 18 70t46 108.5t67.5 101.5t75.5 44q14 0 14 -12q0 -13 -8 -21q-73 -100 -117.5 -173t-52.5 -95l-8 -23q-2 -6 -2 -14q0 -16 16 -16 q6 0 42 19.5t76.5 43t49.5 27.5q69 145 102 191q51 73 99 73q10 0 10 -12q0 -15 -6 -21q-43 -58 -125 -203t-133 -209q7 -2 38 -10t41 -10.5t36 -8.5t41 -8t36 -4t39 -2q27 0 86 13q13 4 38.5 34.5t51.5 30.5q9 0 15 -6q2 -2 2 -8q0 -32 -63.5 -60t-143.5 -28q-35 0 -71 6.5 t-95 22.5t-68 18q-130 -159 -260 -156q-41 0 -80 23t-39 63zM-215 -156q0 -29 30 -46t62 -17q49 0 103 33q54 37 114 108q-81 15 -129 15q-43 0 -80.5 -7t-68.5 -29.5t-31 -56.5zM236 430q0 2 2 2q19 5 35 20t24.5 29t24 25.5t36.5 11.5q19 0 19 -16q0 -32 -47.5 -53 t-77.5 -21z" />
<glyph unicode="&#xff;" horiz-adv-x="337" d="M-240 -158q0 35 20 60.5t53 37t63.5 16.5t62.5 5q70 0 152 -16q40 51 79 129q-124 -78 -153 -78q-19 0 -30.5 11t-12.5 23l-2 11v12q0 19 18 70t46 108.5t67.5 101.5t75.5 44q14 0 14 -12q0 -13 -8 -21q-73 -100 -117.5 -173t-52.5 -95l-8 -23q-2 -6 -2 -14q0 -16 16 -16 q6 0 42 19.5t76.5 43t49.5 27.5q69 145 102 191q51 73 99 73q10 0 10 -12q0 -15 -6 -21q-43 -58 -125 -203t-133 -209q7 -2 38 -10t41 -10.5t36 -8.5t41 -8t36 -4t39 -2q27 0 86 13q13 4 38.5 34.5t51.5 30.5q9 0 15 -6q2 -2 2 -8q0 -32 -63.5 -60t-143.5 -28q-35 0 -71 6.5 t-95 22.5t-68 18q-130 -159 -260 -156q-41 0 -80 23t-39 63zM-215 -156q0 -29 30 -46t62 -17q49 0 103 33q54 37 114 108q-81 15 -129 15q-43 0 -80.5 -7t-68.5 -29.5t-31 -56.5zM246 440q0 22 18 41t41 19t23 -15q0 -17 -23.5 -39t-42.5 -22q-16 0 -16 16zM322 440 q0 17 17 38.5t42 21.5q22 0 22 -15q0 -20 -22 -40.5t-43 -20.5q-16 0 -16 16z" />
<glyph unicode="&#x153;" horiz-adv-x="450" d="M-31 45q-3 72 45 154.5t115 136t119 53.5q55 0 55 -70q0 -60 -43 -129l-10 -28q-3 0 -5.5 -1t-4.5 -2t-4 -4t-3.5 -4.5t-4 -5.5t-3.5 -6q-4 -6 -13 -18t-31.5 -35.5t-46.5 -42.5t-56 -34t-62 -15q-45 0 -47 51zM18 59q0 -15 4.5 -22.5t6.5 -7.5h6q33 4 75 28.5t56 42.5 q-41 15 -55 78.5t12 114.5q-42 -45 -73.5 -109.5t-31.5 -124.5zM140 182q12 -55 40 -57q70 90 78 172q3 27 -10.5 38t-28.5 11q-50 0 -70.5 -54.5t-8.5 -109.5zM182 39q-12 44 19.5 115.5t82.5 133t95 81.5q23 14 49.5 9t36.5 -32q7 -20 7.5 -39.5t-2 -35t-14 -32t-20 -28 t-28.5 -26t-30 -22t-34.5 -20.5t-33 -17t-34 -16.5t-28.5 -13.5q-4 -1 -11.5 -3t-11.5 -3q-12 -35 -6 -59q7 -13 33 -9t55.5 16t50.5 25q58 37 105 84q10 14 24.5 27t20.5 10q4 -3 -4.5 -20.5t-20.5 -32.5q-46 -53 -112 -92q-163 -90 -189 0zM240 123q228 95 200 205 q-8 16 -49 -17q-90 -63 -151 -188z" />
<glyph unicode="&#x2c6;" horiz-adv-x="315" d="M43 455q0 1 51 27.5t66 33.5q6 4 14 4q15 0 25 -18q4 -8 12.5 -25.5t13 -25.5t15 -19t24.5 -18q-1 -1 -1 -3.5t-2 -3.5t-9 -1q-40 0 -92 63q-9 -3 -23.5 -7.5t-21 -6.5t-16.5 -4.5t-19.5 -3.5t-20.5 -1q-16 0 -16 9z" />
<glyph unicode="&#x2dc;" horiz-adv-x="276" d="M61 483q0 7 13 14t30 7t49.5 -20.5t47.5 -20.5q16 0 28 6q4 0 4 -2q0 -11 -15.5 -26t-39.5 -15q-25 0 -39.5 8.5t-18 18t-13 18t-25.5 8.5q-21 0 -21 4z" />
<glyph unicode="&#x2000;" horiz-adv-x="682" />
<glyph unicode="&#x2001;" horiz-adv-x="1365" />
<glyph unicode="&#x2002;" horiz-adv-x="682" />
<glyph unicode="&#x2003;" horiz-adv-x="1365" />
<glyph unicode="&#x2004;" horiz-adv-x="455" />
<glyph unicode="&#x2005;" horiz-adv-x="341" />
<glyph unicode="&#x2006;" horiz-adv-x="227" />
<glyph unicode="&#x2007;" horiz-adv-x="227" />
<glyph unicode="&#x2008;" horiz-adv-x="170" />
<glyph unicode="&#x2009;" horiz-adv-x="273" />
<glyph unicode="&#x200a;" horiz-adv-x="75" />
<glyph unicode="&#x2010;" horiz-adv-x="516" d="M57 299q0 16 35 16h285q26 0 26 -16q0 -14 -26 -14h-285q-35 0 -35 14z" />
<glyph unicode="&#x2011;" horiz-adv-x="516" d="M57 299q0 16 35 16h285q26 0 26 -16q0 -14 -26 -14h-285q-35 0 -35 14z" />
<glyph unicode="&#x2012;" horiz-adv-x="516" d="M57 299q0 16 35 16h285q26 0 26 -16q0 -14 -26 -14h-285q-35 0 -35 14z" />
<glyph unicode="&#x2013;" horiz-adv-x="1194" d="M57 299q0 16 104 16h843q77 0 77 -16q0 -14 -77 -14h-843q-104 0 -104 14z" />
<glyph unicode="&#x2014;" horiz-adv-x="2218" d="M57 299q0 16 207 16h1687q154 0 154 -16q0 -14 -154 -14h-1687q-207 0 -207 14z" />
<glyph unicode="&#x2019;" horiz-adv-x="143" d="M125 514q0 14 10 37.5t22.5 46.5t14.5 27l-2 -2l4 12l2 -2v2q0 2 8 2q9 0 16 -6t7 -15q0 -16 -34 -60t-34 -52l2 -4h-2q-2 -2 -6 -2q-2 0 -5 5.5t-3 10.5z" />
<glyph unicode="&#x202f;" horiz-adv-x="273" />
<glyph unicode="&#x205f;" horiz-adv-x="341" />
<glyph unicode="&#x20ac;" horiz-adv-x="1228" d="M45 369q0 92 67.5 161.5t163.5 101.5t199 32q29 0 59.5 -4t50 -7.5t54.5 -14.5t46.5 -14.5t53 -19.5t47.5 -18q110 67 256 76q22 0 45.5 -2.5t53.5 -10t48.5 -24.5t18.5 -41q0 -27 -19.5 -45t-50.5 -25t-53.5 -9.5t-44.5 -2.5q-95 0 -229 49q-129 -90 -209 -219l96 -4 q8 0 17.5 -4.5t9.5 -8.5q0 -12 -27 -12l-112 4q-2 -4 -6.5 -12t-6.5 -12l89 -2q8 0 17 -4.5t9 -8.5q0 -12 -29 -12l-98 2q-33 -78 -33 -141q0 -160 138 -160q20 0 39 2.5t42 11t36.5 13.5t42 20t36 19.5t41 24.5t37.5 22q16 10 25.5 28t13 33t12 27t23.5 12q14 0 14 -18 q0 -24 -16 -46q-55 -55 -161.5 -114.5t-207.5 -59.5q-83 0 -132.5 53.5t-49.5 129.5q0 66 35 145l-35 2q-10 0 -21.5 4t-11.5 8q1 5 12.5 9t20.5 4l47 -2l12 24h-10q-9 0 -20 4.5t-11 8.5q0 12 31 12h27q93 147 223 235q-59 22 -94 34t-87.5 23t-99.5 11q-139 0 -248 -50 t-143 -141q0 -12 5 -32.5t5 -28.5q0 -22 -9 -39.5t-19 -17.5t-17.5 11.5t-7.5 29.5zM836 569q131 -43 204 -43q2 0 8 -1t9 -1q42 0 86.5 16.5t44.5 39.5q0 21 -29.5 34.5t-60 18t-56.5 4.5q-113 -8 -206 -68z" />
<glyph unicode="&#x25fc;" horiz-adv-x="378" d="M0 0v379h379v-379h-379z" />
<glyph unicode="&#xfb01;" horiz-adv-x="333" d="M-109 -76q0 97 193 369q-16 47 -49 98q-1 1 -20 9.5t-36 17t-32 22.5t-15 27q0 10 15 10q34 0 106 -63q1 1 -4 2h127q169 222 181 222q1 0 2.5 -1.5t2.5 -1.5q9 0 15 -9.5t6 -17.5t-3 -17t-6 -15l-3 -5q-53 -65 -123 -155q125 0 125 -13q0 -14 -125 -14h-21 q-16 -22 -104 -139q4 -20 4 -62q0 -49 -22 -121t-68 -134t-100 -62q-19 0 -30.5 11.5t-13.5 22.5l-2 11v8zM-76 -88q0 -16 13 -16q41 0 80.5 57.5t61 125t21.5 109.5q0 4 -1 14t-1 15q-174 -246 -174 -305zM68 389q5 -6 9.5 -16.5t6.5 -14.5q3 -6 18 -41q27 37 54 72h-88z M137 41q0 98 142 303q10 12 29.5 22.5t35.5 10.5q14 0 14 -12q0 -13 -8 -21q-73 -100 -117.5 -173t-52.5 -95l-8 -23q-2 -6 -2 -14q0 -16 16 -16q14 -2 51 20.5t67 45.5t30 26q4 2 10 2q4 0 4 -4t-3.5 -10t-6.5 -11l-4 -4q-104 -92 -152 -92q-21 1 -32 12t-12 22zM338 414 q0 22 19 47.5t36 25.5q15 0 15 -18q0 -24 -19 -49t-35 -25q-6 0 -8 2q-8 3 -8 17z" />
<glyph unicode="&#xfb02;" horiz-adv-x="333" d="M-109 -76q0 97 193 369q-16 47 -49 98q-1 1 -19 9t-34 16.5t-30.5 22t-14.5 26.5q0 10 14 10q33 0 102 -61q1 1 -4 2h127q169 222 181 222q1 0 2.5 -1.5t2.5 -1.5q9 0 15 -9.5t6 -17.5t-3 -17t-6 -15l-3 -5q-53 -65 -123 -155q27 0 58.5 2t38 2.5t13.5 -2.5 q0 -29 -110 -29h-21q-16 -22 -104 -139q4 -20 4 -62q0 -49 -22 -121t-68 -134t-100 -62q-19 0 -30.5 11.5t-13.5 22.5l-2 11v8zM-76 -88q0 -16 13 -16q41 0 80.5 57.5t61 125t21.5 109.5q0 4 -1 14t-1 15q-174 -246 -174 -305zM68 389q5 -6 9.5 -16.5t6.5 -14.5q3 -6 18 -41 q27 37 54 72h-88zM137 41q0 44 37 120.5t90 154t107 148.5t92.5 116t42.5 45q10 10 18 10q9 0 14 -10t5 -19q0 -8 -2.5 -17t-5.5 -13l-3 -5l-145 -178q-217 -290 -217 -354q0 -16 16 -16q17 0 53.5 22.5t65.5 44.5t29 25q2 2 8 2t6 -4q1 -5 -2.5 -11.5t-7.5 -9.5l-4 -4 q-106 -92 -152 -92q-22 -1 -33 10.5t-11 23.5z" />
</font>
</defs>
</svg>
